<?xml version="1.0" encoding="UTF-8"?>
<svg width="167px" height="48px" viewBox="0 0 167 48" version="1.1" xmlns="http://www.w3.org/2000/svg" xmlns:xlink="http://www.w3.org/1999/xlink">
    <!-- Generator: Sketch 43.1 (39012) - http://www.bohemiancoding.com/sketch -->
    <title>Logos/logo-Openguide</title>
    <desc>Created with Sketch.</desc>
    <defs></defs>
    <g id="Stylde-Guide-App" stroke="none" stroke-width="1" fill="none" fill-rule="evenodd">
        <g id="Textbook-Styleguide---Guest-View---Desktop" transform="translate(-20.000000, -15.000000)">
            <g id="header">
                <g id="Group-2" transform="translate(20.000000, 12.000000)">
                    <g id="Logos/logo-Openguide">
                        <text id="by-OpenStax" font-family="HelveticaNeue, Helvetica Neue" font-size="12" font-weight="normal" letter-spacing="-0.5" fill="#B7B7B7">
                            <tspan x="47" y="48">by OpenSta</tspan>
                            <tspan x="105.804" y="48">x</tspan>
                        </text>
                        <g id="Page-1" stroke-width="1" fill-rule="evenodd" transform="translate(0.000000, 3.000000)">
                            <path d="M33.675678,46.5212848 L6.910058,46.5212848 C6.100718,46.5212848 5.412738,45.9383163 5.289738,45.1480703 L1.363578,19.9354958 C1.363578,19.4885533 1.730938,19.1258174 2.183578,19.1258174 L38.241438,19.1258174 C38.694898,19.1258174 39.061438,19.4885533 39.061438,19.9354958 L35.298458,45.1383541 C35.179558,45.9326486 34.489118,46.5212848 33.675678,46.5212848" id="Fill-5" fill="#DBDBDB"></path>
                            <g id="Group-9" transform="translate(0.000000, 0.369618)">
                                <path d="M17.666408,11.7755572 L14.386408,11.7755572 C13.932948,11.7755572 13.566408,11.4128213 13.566408,10.9658789 C13.566408,10.5189364 13.932948,10.1562005 14.386408,10.1562005 L17.666408,10.1562005 C18.119868,10.1562005 18.486408,10.5189364 18.486408,10.9658789 C18.486408,11.4128213 18.119868,11.7755572 17.666408,11.7755572" id="Fill-1" fill="#4A4A4A"></path>
                                <path d="M26.276408,10.1562005 L25.456408,10.1562005 L25.456408,9.34652216 C25.456408,8.89957971 25.089868,8.5368438 24.636408,8.5368438 C24.182948,8.5368438 23.816408,8.89957971 23.816408,9.34652216 L23.816408,10.1562005 L22.996408,10.1562005 C22.542948,10.1562005 22.176408,10.5189364 22.176408,10.9658789 C22.176408,11.4128213 22.542948,11.7755572 22.996408,11.7755572 L23.816408,11.7755572 L23.816408,12.5852356 C23.816408,13.0321781 24.182948,13.394914 24.636408,13.394914 C25.089868,13.394914 25.456408,13.0321781 25.456408,12.5852356 L25.456408,11.7755572 L26.276408,11.7755572 C26.729868,11.7755572 27.096408,11.4128213 27.096408,10.9658789 C27.096408,10.5189364 26.729868,10.1562005 26.276408,10.1562005" id="Fill-3" fill="#4A4A4A"></path>
                                <path d="M25.784736,35.9168463 C25.944636,36.0747336 26.154556,36.154082 26.364476,36.154082 C26.574396,36.154082 26.784316,36.0747336 26.944216,35.9168463 L30.450536,32.4538519 L26.944216,28.9908576 C26.623596,28.675083 26.105356,28.675083 25.784736,28.9908576 C25.464116,29.3066322 25.464116,29.8199682 25.784736,30.1357428 L28.131576,32.4538519 L25.784736,34.7719611 C25.464116,35.0885453 25.464116,35.6010717 25.784736,35.9168463" id="Fill-10" fill="#FFFFFF"></path>
                                <path d="M14.061278,36.1540011 C14.271198,36.1540011 14.481118,36.0746526 14.641018,35.9167653 C14.961638,35.6001811 14.961638,35.0876547 14.641018,34.7718801 L12.293358,32.453771 L14.641018,30.1356618 C14.961638,29.8198873 14.961638,29.3073609 14.641018,28.9907766 C14.320398,28.6750021 13.802158,28.6750021 13.481538,28.9907766 L9.974398,32.453771 L13.481538,35.9167653 C13.641438,36.0746526 13.851358,36.1540011 14.061278,36.1540011" id="Fill-12" fill="#FFFFFF"></path>
                                <path d="M37.213486,26.3904136 C36.027766,26.5636848 35.029006,27.4656665 34.826466,28.6923292 L34.407446,31.2371483 C34.199166,32.5067239 34.908466,33.7139544 36.044166,34.2216227 L34.486986,44.65028 C34.428766,45.0445934 34.079446,45.3417453 33.676006,45.3417453 L21.033246,45.3417453 L21.033246,19.5656347 L38.232746,19.5656347 L37.213486,26.3904136 Z M19.393246,45.3417453 L6.910386,45.3417453 C6.502846,45.3417453 6.162546,45.0526901 6.100226,44.6551381 L4.469246,34.1884259 C5.564766,33.6629446 6.243726,32.4808142 6.038726,31.2371483 L5.621346,28.6923292 C5.420446,27.4729536 4.432346,26.5758299 3.256466,26.3936523 L2.192926,19.5656347 L19.393246,19.5656347 L19.393246,45.3417453 Z M8.236326,14.0023347 C8.236326,7.41641088 13.662266,2.05957885 20.331326,2.05957885 C27.000386,2.05957885 32.426326,7.41641088 32.426326,14.0023347 C32.426326,15.3868847 32.172946,16.7098991 31.730146,17.946278 L8.933326,17.946278 C8.490526,16.7098991 8.236326,15.3868847 8.236326,14.0023347 L8.236326,14.0023347 Z M39.872746,19.6838477 C39.881766,18.6725595 39.145406,17.946278 38.241766,17.946278 L33.448046,17.946278 C33.839186,16.6961346 34.066326,15.3771685 34.066326,14.0023347 C34.066326,6.52414533 27.904846,0.440222125 20.331326,0.440222125 C12.757806,0.440222125 6.596326,6.52414533 6.596326,14.0023347 C6.596326,15.3771685 6.823466,16.6961346 7.214606,17.946278 L2.183086,17.946278 C1.279446,17.946278 0.543086,18.6725595 0.543086,19.5656347 L1.639426,26.6203623 C0.523406,27.136937 -0.170314,28.3312126 0.036326,29.5886431 L0.455346,32.1326525 C0.657886,33.3641733 1.662386,34.2677744 2.853846,34.4369971 L4.479086,44.9012803 C4.666046,46.0947462 5.687766,46.961102 6.910386,46.961102 L33.676006,46.961102 C34.886326,46.961102 35.932646,46.0696462 36.108946,44.8867061 L37.671866,34.4256617 C38.828886,34.2289098 39.794026,33.3374539 39.992466,32.1326525 L40.410666,29.5886431 C40.615666,28.3417384 39.934246,27.157179 38.835446,26.6341268 L39.872746,19.6838477 Z" id="Fill-7" fill="#4A4A4A"></path>
                            </g>
                        </g>
                        <g id="Group-2" stroke-width="1" fill-rule="evenodd" transform="translate(47.000000, 5.000000)" fill="#4A4A4A">
                            <path d="M11.0342609,8.6147476 C16.1269967,8.6147476 18.8650267,11.4622988 18.8650267,16.6645558 C18.8650267,24.0846171 15.3877286,28.2190424 8.9807384,28.2190424 C3.8880026,28.2190424 1.1225923,25.3988715 1.1225923,20.2239948 C1.1225923,14.4193712 3.833242,8.6147476 11.0342609,8.6147476 Z M10.6509367,12.2289472 C7.4748219,12.2289472 5.47606,14.9122166 5.47606,19.8406706 C5.47606,22.9620248 6.7903144,24.6322231 9.3640626,24.6322231 C12.4854168,24.6322231 14.5389393,21.9489537 14.5389393,17.04788 C14.5389393,13.8991455 13.2246849,12.2289472 10.6509367,12.2289472 Z M27.9433437,13.4610607 C30.8456555,13.4610607 32.7896568,15.5419635 32.7896568,19.4025858 C32.7896568,24.6596034 30.1337677,28.2190424 26.3005257,28.2190424 C25.0136516,28.2190424 24.0279608,27.6440561 23.3708336,27.1238304 L22.768467,32.7641722 C22.7137064,33.3391585 22.1113398,33.6403418 21.0435081,33.6403418 L20.2768597,33.6403418 C19.1816477,33.6403418 18.7161826,33.2296373 18.7161826,32.7915525 L20.2494794,18.2252329 C20.3316203,17.4312042 20.3590006,16.7466967 20.3590006,16.2812316 C20.3590006,15.6241044 20.30424,15.1586393 20.30424,14.7479348 C20.30424,14.1455682 21.7006353,13.762244 23.4803548,13.762244 C24.1922426,13.762244 24.3565244,14.6110333 24.3565244,15.405062 C25.1231728,14.30985 26.4100469,13.4610607 27.9433437,13.4610607 Z M25.3695955,25.0155473 C27.4504983,25.0155473 28.6826118,23.1536869 28.6826118,19.6490085 C28.6826118,17.7597678 27.9159634,16.774077 26.4100469,16.774077 C25.4791167,16.774077 24.7672289,17.5407254 24.2196229,18.4442753 C24.0827214,20.0323327 23.863679,22.1679961 23.6446366,24.3858004 C24.0827214,24.7417443 24.6577077,25.0155473 25.3695955,25.0155473 Z M46.2488218,17.4312042 C46.2488218,21.0727841 43.072707,22.4417991 40.3620573,22.4417991 C39.1573241,22.4417991 38.2811545,22.3596582 37.5145061,22.250137 C37.6514076,24.4953216 38.7739999,25.0155473 40.3894376,25.0155473 C42.5798616,25.0155473 44.3322008,23.8108141 44.6333841,23.8108141 C44.7429053,23.8108141 44.8524265,23.8108141 44.8524265,24.1941383 C44.8250462,24.3036595 44.7702856,25.8643366 44.6333841,26.3024214 C44.1952993,27.8083379 41.3751284,28.2190424 39.8692119,28.2190424 C35.406223,28.2190424 33.4074611,25.8917169 33.4074611,22.1953764 C33.4074611,15.8705271 36.8847592,13.4610607 40.9370436,13.4610607 C45.4000325,13.4610607 46.2488218,16.0074286 46.2488218,17.4312042 Z M37.7061682,19.7311494 L39.0204226,19.7311494 C41.5941708,19.7311494 42.3060586,18.7454586 42.3060586,17.9514299 C42.3060586,17.04788 41.6215511,16.6645558 40.6632406,16.6645558 C38.965662,16.6645558 38.0894924,18.0335708 37.7061682,19.7311494 Z M60.1460715,24.8512655 C60.3103533,24.8512655 60.3651139,24.9060261 60.3651139,25.1524488 C60.3651139,25.2072094 60.3377336,25.8369563 60.1734518,26.7952668 C60.00917,27.8083379 58.7222959,28.2190424 57.7639854,28.2190424 C55.628322,28.2190424 54.4509691,27.2059713 54.4509691,24.7417443 C54.4509691,24.0846171 55.080716,18.5537965 55.080716,18.1704723 C55.080716,17.2943027 54.6700115,16.8014573 53.6021798,16.8014573 C52.5343481,16.8014573 51.6855588,17.7050072 51.1927134,18.4716556 C50.8915301,22.0858552 50.3165438,27.178591 50.3165438,27.178591 C50.2617832,27.7535773 49.6594166,28.0547606 48.5915849,28.0547606 L47.8249365,28.0547606 C46.7297245,28.0547606 46.2642594,27.6440561 46.2642594,27.2059713 C47.3047108,17.04788 47.3047108,17.2943027 47.3047108,16.2812316 C47.3047108,15.6241044 47.2499502,15.1586393 47.2499502,14.7479348 C47.2499502,14.1455682 48.6463455,13.762244 50.426065,13.762244 C51.1105725,13.762244 51.3022346,14.6657939 51.3296149,15.5967241 C52.2057845,14.5015121 53.9307434,13.4610607 55.6009417,13.4610607 C58.0377884,13.4610607 59.2151413,14.5562727 59.2151413,16.9383588 C59.2151413,17.5407254 58.5306338,23.6465323 58.5306338,24.1119974 C58.5306338,24.7417443 58.7770565,25.0155473 59.3520428,25.0155473 C59.735367,25.0155473 60.0365503,24.8512655 60.1460715,24.8512655 Z M71.9350382,13.6253425 C73.0302502,13.6253425 73.5230956,13.8717652 73.5230956,14.30985 L72.4005033,25.4536321 C71.825517,31.011833 69.6898536,33.8046236 65.4185268,33.8046236 C62.5983559,33.8046236 60.3531713,33.0105949 60.3531713,31.8606223 C60.3531713,29.9987619 60.6269743,29.4785362 60.9007773,29.4785362 C61.2293409,29.4785362 62.4614544,30.6011285 64.5971178,30.6011285 C66.7054009,30.6011285 67.9375144,29.3416347 68.1565568,27.0964501 L68.2386977,26.2750411 C67.444669,27.2059713 66.2673161,27.8904788 64.8983011,27.8904788 C62.0781302,27.8904788 60.1888895,25.8917169 60.1888895,22.1679961 C60.1888895,16.9657391 62.790018,13.4610607 66.5411191,13.4610607 C68.0744159,13.4610607 69.2517688,14.3372303 69.8267551,14.8848363 C70.1279384,13.9265258 70.2374596,13.6527228 71.6064746,13.6253425 L71.9350382,13.6253425 Z M68.9232052,19.78591 C69.0327264,18.8823601 69.087487,18.0883314 69.2517688,17.3764436 C68.7863037,16.9931194 68.2113174,16.6645558 67.4720493,16.6645558 C65.4732874,16.6645558 64.2959345,18.4990359 64.2959345,21.9215734 C64.2959345,23.6739126 65.0078223,24.5774625 66.4315979,24.5774625 C67.3077675,24.5774625 68.0196553,23.8381944 68.5672613,22.9894051 L68.9232052,19.78591 Z M86.9822606,24.8512655 C87.1465424,24.8512655 87.201303,24.9060261 87.201303,25.1524488 C87.201303,25.2072094 87.1739227,25.8369563 87.0096409,26.7952668 C86.8453591,27.8083379 85.558485,28.2190424 84.6001745,28.2190424 C82.8752156,28.2190424 81.7800036,27.5619152 81.4240597,26.0286184 C80.4657492,27.1512107 78.7955509,28.2190424 77.0432117,28.2190424 C74.5789847,28.2190424 73.4290121,27.1238304 73.4290121,24.7417443 C73.4290121,23.7834338 74.4420832,14.5015121 74.4420832,14.5015121 C74.4968438,13.9265258 75.0992104,13.6253425 76.1670421,13.6253425 L76.9336905,13.6253425 C78.0289025,13.6253425 78.4943676,14.036047 78.4943676,14.4741318 C78.4943676,14.4741318 77.5634374,23.1810672 77.5634374,23.5370111 C77.5634374,24.3858004 77.9741419,24.8786458 79.0419736,24.8786458 C80.082425,24.8786458 80.903834,24.0846171 81.3966794,23.4001096 C81.6704824,20.4156569 82.3276096,14.5015121 82.3276096,14.5015121 C82.3823702,13.9265258 82.9847368,13.6253425 84.0525685,13.6253425 L84.8192169,13.6253425 C85.9144289,13.6253425 86.379894,14.036047 86.379894,14.4741318 C86.379894,14.4741318 85.3668229,23.8381944 85.3668229,24.1119974 C85.3668229,24.7417443 85.6132456,25.0155473 86.1882319,25.0155473 C86.5715561,25.0155473 86.8727394,24.8512655 86.9822606,24.8512655 Z M91.2964054,7.3552538 C92.3916174,7.3552538 92.8570825,7.7659583 92.8570825,8.2040431 L92.6106598,10.4492277 C92.5558992,11.024214 91.9535326,11.3253973 90.8857009,11.3253973 L90.1190525,11.3253973 C89.0238405,11.3253973 88.5583754,10.9146928 88.5583754,10.476608 L88.8047981,8.2314234 C88.8595587,7.6564371 89.4619253,7.3552538 90.529757,7.3552538 L91.2964054,7.3552538 Z M90.6392782,13.6253425 C91.7344902,13.6253425 92.1999553,14.036047 92.1999553,14.4741318 C92.1999553,14.4741318 91.1868842,23.8381944 91.1868842,24.1119974 C91.1868842,24.7417443 91.4333069,25.0155473 92.0082932,25.0155473 C92.3916174,25.0155473 92.6928007,24.8512655 92.8023219,24.8512655 C92.9666037,24.8512655 93.0213643,24.9060261 93.0213643,25.1524488 C93.0213643,25.2072094 92.993984,25.8369563 92.8297022,26.7952668 C92.6654204,27.8083379 91.3785463,28.2190424 90.4202358,28.2190424 C88.2845724,28.2190424 87.1072195,27.2059713 87.1072195,24.7417443 C87.1072195,23.9750959 88.1476709,14.5015121 88.1476709,14.5015121 C88.2024315,13.9265258 88.8047981,13.6253425 89.8726298,13.6253425 L90.6392782,13.6253425 Z M106.644811,24.8512655 C106.809093,24.8512655 106.863853,24.9060261 106.863853,25.1524488 C106.863853,25.2072094 106.836473,25.8369563 106.672191,26.7952668 C106.50791,27.8083379 105.221035,28.2190424 104.262725,28.2190424 C102.565146,28.2190424 101.497315,27.5892955 101.11399,26.1107593 C100.347342,27.3428728 99.0057073,28.2190424 97.3902696,28.2190424 C94.5700987,28.2190424 92.680858,26.1381396 92.680858,22.2775173 C92.680858,17.0204997 95.2819865,13.4610607 99.0330876,13.4610607 C100.319962,13.4610607 101.333033,14.0634273 101.96278,14.583653 L102.647287,8.2314234 C102.702048,7.6564371 103.304414,7.3552538 104.372246,7.3552538 L105.138895,7.3552538 C106.234107,7.3552538 106.699572,7.7659583 106.699572,8.2040431 C106.699572,8.2040431 105.029373,23.8381944 105.029373,24.1119974 C105.029373,24.7417443 105.275796,25.0155473 105.850782,25.0155473 C106.234107,25.0155473 106.53529,24.8512655 106.644811,24.8512655 Z M101.08661,23.2905884 L101.688977,17.321683 C101.250892,16.9657391 100.675906,16.6645558 99.9640178,16.6645558 C97.9652559,16.6645558 96.787903,18.5264162 96.787903,22.0310946 C96.787903,23.9203353 97.4997908,24.9060261 98.9235664,24.9060261 C99.8271163,24.9060261 100.539004,24.166758 101.08661,23.2905884 Z M119.58375,17.4312042 C119.58375,21.0727841 116.407636,22.4417991 113.696986,22.4417991 C112.492253,22.4417991 111.616083,22.3596582 110.849435,22.250137 C110.986336,24.4953216 112.108928,25.0155473 113.724366,25.0155473 C115.91479,25.0155473 117.667129,23.8108141 117.968313,23.8108141 C118.077834,23.8108141 118.187355,23.8108141 118.187355,24.1941383 C118.159975,24.3036595 118.105214,25.8643366 117.968313,26.3024214 C117.530228,27.8083379 114.710057,28.2190424 113.20414,28.2190424 C108.741152,28.2190424 106.74239,25.8917169 106.74239,22.1953764 C106.74239,15.8705271 110.219688,13.4610607 114.271972,13.4610607 C118.734961,13.4610607 119.58375,16.0074286 119.58375,17.4312042 Z M111.041097,19.7311494 L112.355351,19.7311494 C114.929099,19.7311494 115.640987,18.7454586 115.640987,17.9514299 C115.640987,17.04788 114.95648,16.6645558 113.998169,16.6645558 C112.300591,16.6645558 111.424421,18.0335708 111.041097,19.7311494 Z" id="Openguide"></path>
                        </g>
                    </g>
                </g>
            </g>
        </g>
    </g>
</svg>