<svg xmlns="http://www.w3.org/2000/svg" xmlns:xlink="http://www.w3.org/1999/xlink" viewBox="0 0 113.71 52.26"><defs><style>.cls-1{fill:none;}.cls-2{fill:#d1d2d3;}.cls-3{fill:#a7a8ab;}.cls-4{clip-path:url(#clip-path);}.cls-5{fill:#782b4c;}.cls-6{fill:#e6e6e6;}</style><clipPath id="clip-path"><rect class="cls-1" width="113.71" height="52.26"/></clipPath></defs><title>planet-2</title><g id="Layer_2" data-name="Layer 2"><g id="Layer_1-2" data-name="Layer 1"><circle class="cls-2" cx="74.01" cy="25.63" r="18.39"/><path class="cls-3" d="M83.67,34.07A14.48,14.48,0,0,1,75.92,7.34,18.58,18.58,0,0,0,74,7.24,18.39,18.39,0,1,0,91.28,31.89,14.4,14.4,0,0,1,83.67,34.07Z"/><g class="cls-4"><path class="cls-5" d="M47.3,33.1a.66.66,0,0,0-.67-.66H.67a.66.66,0,1,0,0,1.31h46a.66.66,0,0,0,.67-.66m-34.85,7H11.05a.66.66,0,1,0,0,1.31h1.39a.66.66,0,1,0,0-1.31m44.06,0H30.73a.66.66,0,1,0,0,1.31H56.5a.66.66,0,1,0,0-1.31M27,40.06H19a.66.66,0,1,0,0,1.31h8a.66.66,0,1,0,0-1.31m7.45-17.54a.66.66,0,1,0,0,1.31h6.13a.66.66,0,1,0,0-1.31ZM23.65,14.66H51.31a.66.66,0,1,0,0-1.31H23.65a.66.66,0,1,0,0,1.31M105,35.32a2.11,2.11,0,0,0,0,4.22,2.11,2.11,0,0,0,0-4.22M54.68,49a1.63,1.63,0,0,0,0,3.26,1.63,1.63,0,0,0,0-3.26M91.32,25.64c0-.53,0-1-.08-1.56a.9.9,0,0,1-.2,0H79.46a.94.94,0,1,1,0-1.87H91a17.46,17.46,0,0,0-28.38-9.46H67a.94.94,0,1,1,0,1.87H61.24a.94.94,0,0,1-.44-.12,17.06,17.06,0,0,0-1.74,2.37H81.15a.94.94,0,1,1,0,1.87H58.06a16.78,16.78,0,0,0-1.16,3.74h1.21a.66.66,0,1,1,0,1.31H56.68a16.38,16.38,0,0,0-.1,1.8,16.68,16.68,0,0,0,1.34,6.55h5.86a3.69,3.69,0,0,1,7.1,0H90a16.61,16.61,0,0,0,1.12-4,2.51,2.51,0,0,1-.1-.63H65.42a.94.94,0,1,1,0-1.87H91.31s0-.06,0-.1m-24,9.24a1.75,1.75,0,1,0-1.78-1.75,1.77,1.77,0,0,0,1.78,1.75M89,34.07H70.89a3.69,3.69,0,0,1-7.1,0h-4.9a17.5,17.5,0,0,0,30.14,0m4.2-4.24a2.64,2.64,0,0,1-.48,0,18.75,18.75,0,0,1-1.27,3.69l0,.06a19.32,19.32,0,0,1-36.77-7.89c0-.61,0-1.21.09-1.8H45.84a.66.66,0,1,1,0-1.31H55A19.29,19.29,0,0,1,93.21,25.3h0a2.27,2.27,0,0,1,0,4.53M73.34,4.29a1.47,1.47,0,0,0,0-2.95,1.47,1.47,0,0,0,0,2.95M109.48,0c-5.63,0-5.64,8.59,0,8.59s5.64-8.59,0-8.59m-11,13.66a1,1,0,0,0,0,2,1,1,0,0,0,0-2m-23.07.07a1,1,0,0,1-1,.94H72.18a.94.94,0,1,1,0-1.87H74.5a1,1,0,0,1,1,.94"/></g><path class="cls-6" d="M67.33,34.88a1.75,1.75,0,1,0-1.78-1.75,1.77,1.77,0,0,0,1.78,1.75"/></g></g></svg>