<svg xmlns="http://www.w3.org/2000/svg" xmlns:xlink="http://www.w3.org/1999/xlink" viewBox="0 0 164.5 39.67"><defs><style>.cls-1{fill:none;}.cls-2{clip-path:url(#clip-path);}.cls-3{fill:#782a4a;}.cls-4{opacity:0.5;}.cls-5{clip-path:url(#clip-path-4);}.cls-6{fill:#3c2747;}.cls-7{clip-path:url(#clip-path-5);}.cls-8{clip-path:url(#clip-path-6);}.cls-9{clip-path:url(#clip-path-7);}.cls-10{clip-path:url(#clip-path-8);}.cls-11{clip-path:url(#clip-path-9);}.cls-12{clip-path:url(#clip-path-10);}.cls-13{clip-path:url(#clip-path-11);}.cls-14{clip-path:url(#clip-path-12);}</style><clipPath id="clip-path" transform="translate(0 0)"><rect class="cls-1" width="164.31" height="39.67"/></clipPath><clipPath id="clip-path-4" transform="translate(0 0)"><rect class="cls-1" x="75.42" y="2.71" width="10.24" height="13.74"/></clipPath><clipPath id="clip-path-5" transform="translate(0 0)"><rect class="cls-1" x="53.43" y="1.59" width="16.1" height="14.87"/></clipPath><clipPath id="clip-path-6" transform="translate(0 0)"><rect class="cls-1" x="95.15" y="26.42" width="11.29" height="4"/></clipPath><clipPath id="clip-path-7" transform="translate(0 0)"><rect class="cls-1" x="114.42" y="28.77" width="16.83" height="6.27"/></clipPath><clipPath id="clip-path-8" transform="translate(0 0)"><rect class="cls-1" x="131.25" y="35.05" width="33.06" height="4.63"/></clipPath><clipPath id="clip-path-9" transform="translate(0 0)"><rect class="cls-1" x="51.48" y="18.04" width="15.47" height="7.13"/></clipPath><clipPath id="clip-path-10" transform="translate(0 0)"><rect class="cls-1" x="81.62" y="24.73" width="9.48" height="6.25"/></clipPath><clipPath id="clip-path-11" transform="translate(0 0)"><rect class="cls-1" x="10.63" y="6.02" width="46.66" height="18.72"/></clipPath><clipPath id="clip-path-12" transform="translate(0 0)"><rect class="cls-1" x="3.81" y="10.42" width="2.06" height="0.44"/></clipPath></defs><title>observatory-2</title><g id="Layer_2" data-name="Layer 2"><g id="Layer_1-2" data-name="Layer 1"><g class="cls-2"><g class="cls-2"><g class="cls-2"><path class="cls-3" d="M86.73,16.46a17,17,0,0,0-.54-3.58c-.07-.28-.14-.54-.23-.81a15,15,0,0,0-.61-1.66c-.08-.18-.15-.36-.24-.53a16.59,16.59,0,0,0-.78-1.47c-.13-.24-.29-.48-.44-.7a4,4,0,0,0-.29-.41c-.1-.14-.19-.28-.3-.41A17.21,17.21,0,0,0,75.43,1h0a17.27,17.27,0,0,0-5.89-1V1.59a16.42,16.42,0,0,0-16.1,14.87h33.3Z" transform="translate(0 0)"/><polygon class="cls-3" points="38.79 39.67 164.5 39.67 131.46 35.12 114.42 28.77 106.44 30.42 95.86 27.44 95.15 26.42 91.1 24.73 87.85 24.98 87.85 18.04 51.47 18.04 51.47 23.51 38.79 22.39 30.94 15.73 26.35 15.62 20.63 12.48 18.62 12.11 10.63 6.02 5.87 10.5 3.81 10.42 0 15.81 0 39.67 38.79 39.67"/><g class="cls-4"><g class="cls-5"><path class="cls-6" d="M81.68,7.38l.49.62a1.36,1.36,0,0,1,.13.19c.1.12.18.24.27.37a7.12,7.12,0,0,1,.39.64c.26.43.49.87.71,1.32.08.15.14.31.21.48.21.49.39,1,.55,1.5a6.29,6.29,0,0,1,.21.72,15.8,15.8,0,0,1,.48,3.24h.55a15.35,15.35,0,0,0-.48-3.19c-.07-.24-.13-.48-.21-.71-.16-.5-.34-1-.55-1.48-.07-.16-.14-.32-.22-.48-.22-.45-.45-.89-.7-1.3-.12-.21-.26-.43-.4-.63a3.12,3.12,0,0,0-.26-.36,3.55,3.55,0,0,0-.27-.36A14.89,14.89,0,0,0,80.7,5.88a15.66,15.66,0,0,0-5.26-3.17h0a15.41,15.41,0,0,1,4.73,3,14.63,14.63,0,0,1,1.52,1.64Z" transform="translate(0 0)"/></g></g><g class="cls-4"><g class="cls-7"><path class="cls-6" d="M53.43,16.46h5.82c.5-8.22,4.86-14.74,10.28-14.87a16.42,16.42,0,0,0-16.1,14.87" transform="translate(0 0)"/></g></g><g class="cls-4"><g class="cls-8"><polygon class="cls-6" points="95.15 26.42 95.34 28.42 106.44 30.42 95.94 27.47 95.15 26.42"/></g></g><g class="cls-4"><g class="cls-9"><path class="cls-6" d="M120.57,33.22,131.25,35l-16.83-6.27c1,.64,6.15,4.45,6.15,4.45" transform="translate(0 0)"/></g></g><g class="cls-4"><g class="cls-10"><polygon class="cls-6" points="131.25 35.05 156.22 39.67 164.31 39.67 131.25 35.05"/></g></g><g class="cls-4"><g class="cls-11"><polygon class="cls-6" points="60.48 23.88 57.29 22.98 57.29 18.04 51.48 18.04 51.48 23.46 57.29 23.46 60.33 24.1 62.63 25.17 66.95 25.17 61.79 24.5 60.48 23.88"/></g></g><g class="cls-4"><g class="cls-12"><polygon class="cls-6" points="91.1 24.73 87.85 24.98 87.85 26.41 86.1 27.85 84.71 29.44 81.62 30.99 84.56 30.4 87.85 28.25 88.98 25.84 91.1 24.73"/></g></g><g class="cls-4"><g class="cls-13"><path class="cls-6" d="M10.63,6,17,13.31l3.39-.3,5.94,2.6,3.74.76,8.53,7.23s7.5.48,7.79.48,4.76.65,4.76.65l6.15-1.27H51.48l-12.7-1.08-7.85-6.66-3.17-.07-1.44,0-5.7-3.14-2-.37-6-4.61Z" transform="translate(0 0)"/></g></g><g class="cls-4"><g class="cls-14"><polygon class="cls-6" points="3.81 10.42 5.16 10.85 5.87 10.49 3.81 10.42"/></g></g></g></g></g></g></g></svg>