<svg xmlns="http://www.w3.org/2000/svg" viewBox="0 0 21 23.76"><defs><style>.cls-1{fill:#f0a041;}.cls-2{fill:#772a4a;}</style></defs><title>Collaborative Group Work</title><g id="Layer_2" data-name="Layer 2"><g id="Layer_1-2" data-name="Layer 1"><path class="cls-1" d="M21,23.76H0V0H21ZM.86,22.89H20.14V.86H.86Z"/><path class="cls-2" d="M13,12.89a2,2,0,0,1-1.3.43,2.09,2.09,0,0,1-1.23-.37,2.55,2.55,0,0,0-.65.29,2.24,2.24,0,0,1-.57.08A2.16,2.16,0,0,1,8.16,13a2.53,2.53,0,0,0-2.22,2.59V16H8.62v.18h6.43v-.81A2.54,2.54,0,0,0,13,12.89ZM8.63,15.25H6.73a1.73,1.73,0,0,1,1.64-1.48h.84A2.49,2.49,0,0,0,8.63,15.25Zm5.67.18H9.37v-.06a1.79,1.79,0,0,1,1.79-1.78h1.36a1.79,1.79,0,0,1,1.79,1.78Z"/><path class="cls-2" d="M9.23,12.84h0a1.8,1.8,0,0,0,1.19-.46,1.8,1.8,0,0,0,1.19.46h0a1.81,1.81,0,0,0,1.58-.94.84.84,0,0,0,.5-.82h0s0-.06,0-.15,0,0,0,0a4.47,4.47,0,0,0-.36-2h0a1.6,1.6,0,0,0-.19-.29l-.07-.08a1.06,1.06,0,0,0-.45-.29h0c0-.39-.45-.7-1-.7s-1,.31-1,.69a1,1,0,0,0-.25.11A1,1,0,0,0,10,8.27H8.51A1.1,1.1,0,0,0,7.41,9.36V11A1.82,1.82,0,0,0,9.23,12.84Zm1.37-2.19a2.53,2.53,0,0,0,1.09-1.11,2.53,2.53,0,0,0,1.09,1.11V11a1.07,1.07,0,0,1-1.06,1.06h0A1.07,1.07,0,0,1,10.6,11ZM8.16,9.36A.34.34,0,0,1,8.51,9H9.89a5,5,0,0,0-.3,2.06l.27-.1v0a1.8,1.8,0,0,0,.17.76h0a1.06,1.06,0,0,1-.74.31h0A1.07,1.07,0,0,1,8.16,11Z"/></g></g></svg>