<svg xmlns="http://www.w3.org/2000/svg" viewBox="0 0 21 23.76"><defs><style>.cls-1{fill:#f0a041;}.cls-2{fill:#772a4a;}</style></defs><title>For Further Exploration</title><g id="Layer_2" data-name="Layer 2"><g id="Layer_1-2" data-name="Layer 1"><path class="cls-1" d="M21,23.76H0V0H21ZM.86,22.89H20.14V.86H.86Z"/><circle class="cls-2" cx="14.57" cy="4.48" r="0.33"/><circle class="cls-2" cx="7.8" cy="7.21" r="0.33"/><circle class="cls-2" cx="15.24" cy="5.85" r="0.16"/><circle class="cls-2" cx="11.55" cy="4.31" r="0.16"/><path class="cls-2" d="M14.23,11.52a.38.38,0,0,0,0-.29A.37.37,0,0,0,14,11l-.45-.18A9.87,9.87,0,0,0,13.89,6a.38.38,0,0,0-.16-.3.37.37,0,0,0-.34-.05l-.1,0a10,10,0,0,0-3.19,3.77l-.47-.19a.38.38,0,0,0-.49.21c-.42,1.05-1.81,1.62-2.81,2a.37.37,0,0,0-.23.21l-.48,1.2a.38.38,0,0,0,.21.49l2.62,1.06-.1.33a.38.38,0,0,0,.22.46l2.16.87.14,0a.38.38,0,0,0,.34-.21l.15-.31,2.58,1,.14,0a.36.36,0,0,0,.15,0,.37.37,0,0,0,.2-.2l.48-1.2a.38.38,0,0,0,0-.31C14.41,13.93,13.81,12.57,14.23,11.52ZM6.46,12.76l.28-.69a5.32,5.32,0,0,0,2.94-2l.1,0,0,.05-.19.62-.93,2.84Zm4.23,2.45L9.17,14.6l1.1-3.53.23-.7a9.33,9.33,0,0,1,2.75-3.7,9.27,9.27,0,0,1-.53,4.42l-1.33,2.73Zm3.19.54-2.17-.88.34-.71,1.28-2.58v0l.08,0a5.33,5.33,0,0,0,.74,3.47Z"/><rect class="cls-2" x="11.74" y="8.6" width="0.94" height="1.29" rx="0.43" ry="0.43" transform="translate(-0.94 17.11) rotate(-68.03)"/><rect class="cls-2" x="7.29" y="16.8" width="2.03" height="0.75" transform="translate(-10.72 18.45) rotate(-68.02)"/><rect class="cls-2" x="7.85" y="17.72" width="2.97" height="0.75" transform="translate(-10.94 19.96) rotate(-67.98)"/></g></g></svg>