<svg xmlns="http://www.w3.org/2000/svg" xmlns:xlink="http://www.w3.org/1999/xlink" viewBox="0 0 9.07 7.82"><defs><style>.cls-1{fill:none;}.cls-2{clip-path:url(#clip-path);}.cls-3{fill:#3c2747;}</style><clipPath id="clip-path" transform="translate(0 0)"><rect class="cls-1" width="9.07" height="7.82"/></clipPath></defs><title>making connections</title><g id="Layer_2" data-name="Layer 2"><g id="Layer_1-2" data-name="Layer 1"><g id="making_connections" data-name="making connections"><g class="cls-2"><g class="cls-2"><path class="cls-3" d="M8,5.72A1,1,0,0,0,7.39,6L5.26,4.49a1.69,1.69,0,0,0-.12-1.72L6.5,1.55a.77.77,0,0,0,.18,0A.79.79,0,1,0,5.89.79.78.78,0,0,0,5.94,1L4.59,2.26A1.69,1.69,0,0,0,3.72,2,1.7,1.7,0,0,0,2.06,4.17l-.86.38a.77.77,0,0,0-.41-.13.79.79,0,1,0,.79.79h0l.83-.37a1.69,1.69,0,0,0,2.38.24L7,6.61a1,1,0,0,0,0,.16,1,1,0,1,0,1-1m-4.3-1a1,1,0,1,1,1-1,1,1,0,0,1-1,1" transform="translate(0 0)"/></g></g></g></g></g></svg>