<svg xmlns="http://www.w3.org/2000/svg" xmlns:xlink="http://www.w3.org/1999/xlink" viewBox="0 0 8.36 9.67"><defs><style>.cls-1{fill:none;}.cls-2{clip-path:url(#clip-path);}.cls-3{clip-path:url(#clip-path-2);}.cls-4{fill:#3c2747;}</style><clipPath id="clip-path" transform="translate(0 0)"><rect class="cls-1" width="8.36" height="9.67"/></clipPath><clipPath id="clip-path-2" transform="translate(0 0)"><rect class="cls-1" y="-0.24" width="8.36" height="10.1"/></clipPath></defs><title>seeing for yourself</title><g id="Layer_2" data-name="Layer 2"><g id="Layer_1-2" data-name="Layer 1"><g id="seeing_for_yourself" data-name="seeing for yourself"><g class="cls-2"><g class="cls-3"><path class="cls-4" d="M5.24,5.39A1.42,1.42,0,0,0,5,4.65L8.36,3.48,6.91,0,1.75,2.5,1.6,2.19.94,2.5l.15.32L0,3.35,1.12,6l1.36-.48a1.27,1.27,0,0,0,.47.87L1.56,9.35l.66.31L3.6,6.74a1,1,0,0,0,.24,0l.28,0,1.5,2.93.65-.33L4.78,6.41a1.38,1.38,0,0,0,.46-1M6.53,1l.86,2.06-1.07.38L5.5,1.49ZM2.62,4.74l-1.09.38L.94,3.71,4.84,1.81l.78,1.87-1.21.43a1.38,1.38,0,0,0-1.79.63m1.85.83a.34.34,0,0,1-.06.14.65.65,0,0,1-.21.21L4.13,6A.66.66,0,0,1,3.84,6,.65.65,0,0,1,3.55,6l0,0a.66.66,0,0,1-.23-.22.71.71,0,0,1-.07-.16,1,1,0,0,1,0-.18.21.21,0,0,1,0-.08.7.7,0,0,1,.38-.54.73.73,0,0,1,.53,0,.78.78,0,0,1,.2.15.8.8,0,0,1,.15.2.75.75,0,0,1,0,.26.6.6,0,0,1,0,.18" transform="translate(0 0)"/></g></g></g></g></g></svg>