<svg xmlns="http://www.w3.org/2000/svg" xmlns:xlink="http://www.w3.org/1999/xlink" viewBox="0 0 95.05 99.38"><defs><style>.cls-1{fill:none;}.cls-2{clip-path:url(#clip-path);}.cls-3{fill:#dceaec;}.cls-4{opacity:0.5;}.cls-5{clip-path:url(#clip-path-4);}.cls-6{fill:#a2b9ba;}.cls-7{clip-path:url(#clip-path-5);}.cls-8{fill:#fff;}.cls-9{fill:#772a4a;}.cls-10{fill:#f0a041;}</style><clipPath id="clip-path" transform="translate(0 0)"><rect class="cls-1" width="95.05" height="63.84"/></clipPath><clipPath id="clip-path-4" transform="translate(0 0)"><rect class="cls-1" x="22.13" y="13.46" width="8.17" height="8.3"/></clipPath><clipPath id="clip-path-5" transform="translate(0 0)"><rect class="cls-1" x="17.69" y="37.04" width="11.69" height="8.97"/></clipPath></defs><title>voyager-2</title><g id="Layer_2" data-name="Layer 2"><g id="Layer_1-2" data-name="Layer 1"><g class="cls-2"><g class="cls-2"><g class="cls-2"><path class="cls-3" d="M30.54,21.23C28.68,16.31,25.33,13,21.86,13c-5.23,0-10.18,6.82-10.18,16.06s5.67,17.38,10.9,17.38c3,0,5.59-2.39,7.33-6.15l.84-2.77L33,37.29l-1.9-13.22,1.38-1.94-2.15,0Z" transform="translate(0 0)"/><g class="cls-4"><g class="cls-5"><path class="cls-6" d="M30.3,21.76c-1.71-4.79-4.86-8.08-8.17-8.3A23.14,23.14,0,0,1,27,21.72l3.26,0" transform="translate(0 0)"/></g></g><g class="cls-4"><g class="cls-7"><path class="cls-6" d="M27.29,39.56c-1-.74-1.38-1.83-2.29-2.53a17.69,17.69,0,0,1-7.31,6.65A7.4,7.4,0,0,0,22.61,46c2.76,0,5.09-2.16,6.77-5.58a5,5,0,0,1-2.09-.87" transform="translate(0 0)"/></g></g><polygon class="cls-8" points="29.58 22.03 32.46 22.12 32.46 37.68 29.06 37.49 26.78 33.8 26.16 28.29 27.4 24.21 29.58 22.03"/><path class="cls-9" d="M20.56,20.93l-3.67-3.67a.43.43,0,0,0-.61.61L20,21.53a.43.43,0,1,0,.61-.61" transform="translate(0 0)"/><path class="cls-10" d="M29,34.84a.89.89,0,1,0,1,.33.79.79,0,0,0-1-.33" transform="translate(0 0)"/><path class="cls-9" d="M94.57,27.27l-49.42,6a.69.69,0,0,0,.14-.41.7.7,0,0,0-1.21-.48L39.35,29.7l4.58-2.92a.68.68,0,0,0,.23,0,.7.7,0,1,0-.34-1.31L40,23.95l-1.91-3.2a.43.43,0,0,0-.35-.21.44.44,0,0,0-.37.18l-1.21,1.64-3.07-1.28a.43.43,0,0,0-.5.13l-.34.42H30.7a.43.43,0,0,0,.24-.55l-.1-.24v0l0,0c-2-5-5.46-8.2-9-8.2a6.77,6.77,0,0,0-2.41.46l-.5-.76a.43.43,0,0,0-.36-.19H16.9L16.73,12l-1-1.08a.43.43,0,0,0-.32-.14H15L14.48,10a.43.43,0,0,0,.2-.18c.06-.1.1-.18,0-.46l.8-.53a.43.43,0,0,0,.19-.36V8.27l.21-.13a.43.43,0,1,0-.45-.73L15,7.66A.43.43,0,0,0,14.8,8v.2l-.52.34C14,7.95,13.38,7,12.45,5.4a.43.43,0,0,0-.36-.21l-.87,0-.77-.47.09-.06.77-.71h1.37a.43.43,0,0,0,.36-.66l-.64-1,.72-1.08H14c-.59.61-.85,1.28-.58,1.68h0l2.87,4.51a.43.43,0,0,0,.36.2h.06c2.94-.42,3.16-2.45,3.16-2.54a.43.43,0,0,0-.06-.26L17.2.34h0v0A.59.59,0,0,0,17.1.24l0,0a1.86,1.86,0,0,0-1.9.1H12.9a.43.43,0,0,0-.36.19L11.54,2a.43.43,0,0,0,0,.47l.37.6h-.76a.43.43,0,0,0-.29.11l-.77.71H8.78a.43.43,0,0,0-.39.25L7.71,5.58a.43.43,0,0,0,0,.43l1,1.46.1.36a.43.43,0,0,0-.56.63l1.58,2.15a.43.43,0,0,0,.28.17l1.28.19.1.15a1.94,1.94,0,0,1,.16.55.43.43,0,0,0-.24.19l-.62,1.08a.43.43,0,0,0,0,.41l.16.33h0s0,0,0,0l.13.27a.42.42,0,0,0,.12.15l.59.45,0,.09a.43.43,0,0,0,.11.47l.68.61a.43.43,0,0,0,.29.11h1.48l.74.66a21.07,21.07,0,0,0-3.83,12.56c0,9,5.61,17.81,11.33,17.81,3,0,5.84-2.33,7.72-6.4v0a.4.4,0,0,0,0-.06.41.41,0,0,0,0-.09.4.4,0,0,0,0-.08.41.41,0,0,0,0-.08l0-.07L30.21,40l-.07,0-.05,0h0l-2.7-.9-.92-1.56a.43.43,0,0,0-.14-.14c-4.9-3.16-4.18-8.63-3.79-10.41l.45.3a15.23,15.23,0,0,0,.32,4.13l-.39.48a.43.43,0,0,0,.15.66l.63.29a11.27,11.27,0,0,0,1.85,3.46.43.43,0,0,0,.67-.54,10,10,0,0,1-1.4-2.4l1.54.72,2.3,3.55a.43.43,0,0,0,.31.19l3.51.4h0a.43.43,0,0,0,.36-.2l0-.07.21.09a1.46,1.46,0,0,0-.52,1.68.42.42,0,0,0,0,.11l-5.31,35a1,1,0,0,0-1,.85c0,.48.52.86,1.16.86s1.16-.39,1.16-.86a.82.82,0,0,0-.47-.69l6.67-34.45a1.5,1.5,0,0,0,.36-.32l2,.87a.42.42,0,0,0,0,.07L65.63,99.14a.43.43,0,1,0,.77-.38l-28-57.28,3.94,1.68,6.56,5.66a.43.43,0,0,0,.28.1h0a1.94,1.94,0,0,0,1.59-.76A2.18,2.18,0,0,0,51,46.42a.43.43,0,0,0-.13-.2L49.4,45l1.35-.35a.43.43,0,1,0-.22-.83l-.93.24.66-1.66a.43.43,0,0,0-.45-.58c-1.14.14-3,.37-3.21.37a.42.42,0,0,0-.32.16l-2.1-1.78a1.06,1.06,0,0,1-.52-.36l-3.45-.65-2.6-2.86,5-2.3,52.09-6.28a.43.43,0,0,0-.1-.85M17.63,2.78,19,5.08c-.09.33-.48,1.28-2.13,1.6L15.32,4.28a3.21,3.21,0,0,0,1.35-.53,3.31,3.31,0,0,0,1-1m-1.69-.22a3.85,3.85,0,0,0,1-1l0,.08a.42.42,0,0,0,.05.13c0,.06,0,.21-.08.43a2.39,2.39,0,0,1-.77.8c-.72.48-1.35.48-1.46.32l0,0-.13-.2a3.78,3.78,0,0,0,1.35-.58M31.56,22.48l-1,1.1h-2a13,13,0,0,0,1-1.11h2Zm-1.18-.86h0ZM19.4,14l.09,0a6.1,6.1,0,0,1,2.38-.5c3,0,6.06,2.76,7.93,7.1h-.86a.43.43,0,0,0-.41.56c0,.14.08.29.11.42-.74-.06-2.13,0-3.32,0l-1-.46a.44.44,0,0,0-.18,0h-1.3a.43.43,0,0,0-.07-.33l-4.43-6.18a7.54,7.54,0,0,1,1-.56M21,23.15A3.24,3.24,0,0,0,22.4,21.9h1.38a.42.42,0,0,0,.09.09l.43.3-.74.73,0,0-.87,1.11H21.08L21,23.95v-.8M17.65,15l4.28,6c-.22.41-.76,1.29-1.45,1.4l-5.35-4.53A11.74,11.74,0,0,1,17.65,15m6.54,8.59L25,22.8l2,1.38H23.75Zm1.73-1.23c1,0,2.1-.06,2.6,0a5.13,5.13,0,0,1-1.1,1.05l0,0ZM13.53,9V9l0,0h0M24.24,36.76l-1.67.74L22,36.77l1.08-1.38a9.09,9.09,0,0,0,1.15,1.37M22.62,34.6l-1.49,1.9a.43.43,0,0,0,0,.53l1,1.25a.43.43,0,0,0,.51.13l2.34-1c.25.2.51.39.79.58l1,1.61a.43.43,0,0,0,.23.19l2.38.8C27.58,44,25.15,46,22.58,46c-4.74,0-10.47-7.56-10.47-17a21.44,21.44,0,0,1,2.57-10.44l5.38,4.55.06,0V24a.43.43,0,0,0,0,.15l.54,1.4a.43.43,0,0,0,.16.2l.89.6a12.18,12.18,0,0,0,.87,8.23m1.18-6.85,1.47,1,.09,0L24,30.44a15.14,15.14,0,0,1-.2-2.69m.59,4.38c-.06-.2-.12-.41-.17-.61l1.66-2L26.15,33Zm1.4-4.27a.41.41,0,0,0,0,.08h-.15l-3-2-1.23-.84,0-.1h5.33Zm2-3.43H30.3L29.46,28H26.67Zm-1.15,4.37h2.71l.38,4.41H27Zm2.55,8.09-1.83-2.82h2.44a.43.43,0,0,0,.05.17l1.77,2.93Zm2,17.49,2.11-13.92a1.48,1.48,0,0,0,.55.16Zm8.86-27.72a1,1,0,0,0,1.54-1.14l1.63.68-4.69,3-.05-.75a.43.43,0,0,0,0-.13L38,27.25Zm-2.34-4.93,1,1.65L37,22.69Zm11.47,21-.61,1.55L47,43l2.14-.25m-5.7-1.7h0a.42.42,0,0,0,.11.17l6.56,5.56a1.23,1.23,0,0,1-.11.88,1,1,0,0,1-.76.37l-6.45-5.56-1.69-1.85Zm-2.58.55L37.11,40l2.65.36Zm-2-2.25-3.39-.46a1.49,1.49,0,0,0-.46-.86l1.26-.73.51-.23ZM37.25,25.21l-.7-1.78,2.88,1.2.51.86h0l-2.7-.28m.35.91.92.09-.8.23Zm1.09,6.94,1.35.38-2.11,1.48Zm3.65.51-.25,0a.42.42,0,0,0-.32.24l-2.29,1.06,1.3-.91A.74.74,0,0,0,41,34a.75.75,0,1,0,0-1.51.74.74,0,0,0-.47.17l-1.82-.51-.13-1.9L43.53,33Z" transform="translate(0 0)"/><path class="cls-9" d="M45.91,44.58a.39.39,0,1,0-.39-.39.39.39,0,0,0,.39.39" transform="translate(0 0)"/><path class="cls-9" d="M46.84,45.35a.39.39,0,1,0-.39-.39.39.39,0,0,0,.39.39" transform="translate(0 0)"/><path class="cls-9" d="M49.64,49.63a.43.43,0,0,0,0,.86h0A3.09,3.09,0,0,0,52,49.38a3.57,3.57,0,0,0,.61-2.53.43.43,0,0,0-.85.13,2.74,2.74,0,0,1-.44,1.86,2.28,2.28,0,0,1-1.68.78" transform="translate(0 0)"/><path class="cls-9" d="M7.24,31.46a.46.46,0,0,1-.33-.14,2.88,2.88,0,0,1-.81-1.55,1.72,1.72,0,0,1,.45-1.51.46.46,0,1,1,.64.65.84.84,0,0,0-.18.72,2,2,0,0,0,.56,1,.46.46,0,0,1-.33.78" transform="translate(0 0)"/><path class="cls-9" d="M4.21,31.16A.46.46,0,0,1,3.88,31,3.16,3.16,0,0,1,3,29.33a1.84,1.84,0,0,1,.48-1.64.46.46,0,1,1,.64.65,1,1,0,0,0-.22.85,2.27,2.27,0,0,0,.64,1.19.46.46,0,0,1-.33.78" transform="translate(0 0)"/><path class="cls-9" d="M1.47,31.17A.46.46,0,0,1,1.15,31C-.14,29.72-.38,27.85.62,26.87a.46.46,0,1,1,.64.65c-.63.61-.38,1.93.55,2.87a.46.46,0,0,1-.33.78" transform="translate(0 0)"/></g></g></g></g></g></svg>