<?xml version="1.0" encoding="UTF-8"?>
<svg width="44px" height="60px" viewBox="0 0 44 60" version="1.1" xmlns="http://www.w3.org/2000/svg" xmlns:xlink="http://www.w3.org/1999/xlink">
    <!-- Generator: Sketch 43.1 (39012) - http://www.bohemiancoding.com/sketch -->
    <title>Fill 1</title>
    <desc>Created with Sketch.</desc>
    <defs></defs>
    <g id="Stylde-Guide-App" stroke="none" stroke-width="1" fill="none" fill-rule="evenodd">
        <g id="Textbook-Styleguide---Guest-View---Desktop" transform="translate(-1345.000000, -2316.000000)" fill="#234355">
            <path d="M1386.59925,2333.46069 L1386.59925,2339.03121 L1374.6888,2346.45032 L1372.99343,2346.45539 C1372.52481,2345.77386 1371.9486,2345.17512 1371.29524,2344.67102 L1382.65651,2337.70308 C1382.86829,2337.57296 1383.01924,2337.37639 1383.10711,2337.15278 C1383.10767,2337.15109 1383.10824,2337.14997 1383.1088,2337.14884 C1383.13189,2337.0897 1383.15104,2337.03112 1383.164,2336.9686 C1383.17639,2336.91396 1383.18259,2336.85877 1383.18653,2336.80357 C1383.18709,2336.78554 1383.19329,2336.76921 1383.19385,2336.75119 L1383.19385,2336.7371 L1383.19385,2336.73316 L1383.20174,2335.70467 C1383.22314,2335.58245 1383.22483,2335.45684 1383.20455,2335.33124 L1383.2192,2333.46069 C1383.2192,2332.52852 1383.97733,2331.77038 1384.90894,2331.77095 C1385.84055,2331.77095 1386.59925,2332.52908 1386.59925,2333.46069 L1386.59925,2333.46069 Z M1386.17118,2346.41934 L1378.96893,2346.43905 L1384.93541,2342.72162 C1385.4705,2343.90725 1385.87998,2345.14865 1386.17118,2346.41934 L1386.17118,2346.41934 Z M1386.68092,2350.84027 C1386.68092,2351.24356 1386.65726,2351.64346 1386.63361,2352.04281 L1374.30016,2351.98198 C1374.34804,2351.63164 1374.38127,2351.27679 1374.38127,2350.91349 C1374.38127,2350.14635 1374.26581,2349.40681 1374.06078,2348.705 L1386.55475,2348.67064 C1386.63417,2349.38991 1386.68092,2350.11425 1386.68092,2350.84027 L1386.68092,2350.84027 Z M1383.47378,2361.6 L1375.70716,2354.24229 L1386.37057,2354.29467 C1385.91265,2356.89801 1384.93372,2359.36841 1383.47378,2361.6 L1383.47378,2361.6 Z M1372.12884,2350.91349 C1372.12884,2351.54039 1372.02126,2352.14081 1371.83145,2352.70406 C1371.82694,2352.71589 1371.823,2352.72715 1371.81906,2352.73955 C1371.05811,2354.94973 1368.96226,2356.54541 1366.4958,2356.54598 C1363.39005,2356.54541 1360.86388,2354.01924 1360.86332,2350.91349 C1360.86332,2349.36062 1361.49528,2347.9525 1362.51532,2346.93302 C1363.5348,2345.91298 1364.94292,2345.28101 1366.4958,2345.28101 C1369.60155,2345.28101 1372.12828,2347.80831 1372.12884,2350.91349 L1372.12884,2350.91349 Z M1382.57822,2367.48087 C1378.51777,2371.35546 1372.54508,2373.74701 1366.87149,2373.74701 C1360.95569,2373.74701 1355.38066,2371.50922 1351.11744,2367.43356 L1351.25712,2363.75837 L1359.81793,2355.08716 C1361.21366,2357.31256 1363.68181,2358.7984 1366.4958,2358.79897 C1368.66994,2358.79897 1370.6413,2357.91467 1372.06914,2356.48683 C1372.5141,2356.04131 1372.8988,2355.53832 1373.2283,2354.99761 L1382.59512,2363.87158 L1382.57822,2367.48087 Z M1347.55602,2354.30087 L1357.42863,2354.30087 L1350.31087,2361.51044 C1348.94048,2359.33518 1348.00268,2356.87097 1347.55602,2354.30087 L1347.55602,2354.30087 Z M1347.25299,2350.84027 C1347.25299,2350.10636 1347.29749,2349.38315 1347.37578,2348.66839 L1358.94039,2348.66839 C1358.72861,2349.3809 1358.61033,2350.1334 1358.61033,2350.91349 C1358.61033,2351.29988 1358.64806,2351.6767 1358.70157,2352.04788 L1347.29298,2352.04788 C1347.26876,2351.64628 1347.25299,2351.24356 1347.25299,2350.84027 L1347.25299,2350.84027 Z M1349.2238,2342.23384 C1349.22943,2342.2237 1349.23732,2342.21526 1349.24295,2342.20455 L1349.91716,2340.93218 C1352.75818,2336.03811 1357.65055,2332.46487 1363.50608,2331.43356 L1363.50608,2343.62056 C1362.09514,2344.2007 1360.88979,2345.17963 1360.02802,2346.4154 L1347.75316,2346.4154 C1348.08716,2344.95433 1348.58395,2343.5541 1349.2238,2342.23384 L1349.2238,2342.23384 Z M1361.93124,2318.25299 L1363.50608,2318.25299 L1363.50608,2329.14508 C1360.01901,2329.69481 1356.82821,2331.05337 1354.11279,2333.01178 L1361.93124,2318.25299 Z M1367.9946,2343.17503 C1367.50908,2343.08097 1367.00892,2343.02802 1366.4958,2343.02802 C1366.24684,2343.02802 1366.00183,2343.04323 1365.75907,2343.06576 L1365.75907,2326.13847 L1368.00587,2326.13847 L1367.9946,2343.17503 Z M1370.25492,2331.50115 C1373.94701,2332.15001 1377.42619,2333.89664 1380.26552,2336.52589 L1370.24759,2342.6698 L1370.25492,2331.50115 Z M1370.25942,2325.06379 C1370.25999,2325.04633 1370.26449,2325.02943 1370.26449,2325.01197 C1370.26449,2324.99451 1370.25999,2324.97761 1370.25942,2324.96015 L1370.26393,2318.25299 L1371.83483,2318.25299 L1379.53105,2333.02981 C1376.75029,2331.04999 1373.57752,2329.73368 1370.25661,2329.21436 L1370.25942,2325.06379 Z M1384.9095,2329.51795 C1383.36451,2329.51795 1382.02849,2330.41296 1381.38188,2331.70674 L1373.51669,2316.60606 C1373.32293,2316.23375 1372.93823,2316 1372.51805,2316 L1369.13856,2316 C1368.51673,2316 1368.01206,2316.50411 1368.01206,2317.12537 L1368.00756,2323.88547 L1365.75907,2323.88547 L1365.75907,2317.1265 C1365.75907,2316.50467 1365.2544,2316 1364.63257,2316 L1361.25309,2316 C1360.83516,2315.99944 1360.45384,2316.23206 1360.2567,2316.59873 L1347.94917,2339.83272 C1346.63905,2342.0981 1345.72434,2344.61526 1345.29064,2347.28843 C1345.28444,2347.31716 1345.28106,2347.34588 1345.27655,2347.37517 C1345.09801,2348.50561 1345,2349.66252 1345,2350.84027 C1345,2355.42736 1346.42107,2359.94968 1349.00807,2363.62206 L1348.84755,2367.84811 C1348.83572,2368.16184 1348.95513,2368.46656 1349.17761,2368.68848 C1353.90833,2373.40343 1360.19193,2376 1366.87149,2376 C1373.37249,2376 1379.96193,2373.29134 1384.4989,2368.75438 C1384.70955,2368.54429 1384.82783,2368.25985 1384.82896,2367.96301 L1384.84924,2363.60009 C1387.52298,2359.86238 1388.93335,2355.45891 1388.93391,2350.83971 C1388.93335,2347.61906 1388.21408,2344.42206 1386.85778,2341.52415 L1388.3211,2340.61225 C1388.39488,2340.56663 1388.46191,2340.51312 1388.52218,2340.45285 C1388.73114,2340.24389 1388.85224,2339.95888 1388.85224,2339.65642 L1388.85224,2333.46069 C1388.85224,2331.28712 1387.08364,2329.51852 1384.9095,2329.51795 L1384.9095,2329.51795 Z M1372.81319,2361.63661 C1372.59409,2361.85684 1372.23642,2361.85684 1372.01676,2361.63661 C1371.79709,2361.41751 1371.79765,2361.05985 1372.01676,2360.84018 C1372.23642,2360.62108 1372.59352,2360.62108 1372.81319,2360.84018 C1373.03342,2361.06041 1373.03342,2361.41751 1372.81319,2361.63661 L1372.81319,2361.63661 Z M1371.22032,2360.04375 C1370.56132,2360.70275 1370.56132,2361.77517 1371.22032,2362.43361 C1371.87932,2363.09204 1372.95118,2363.09204 1373.61018,2362.43361 C1374.26862,2361.77517 1374.26862,2360.70275 1373.61018,2360.04375 C1372.95118,2359.38475 1371.87932,2359.38475 1371.22032,2360.04375 L1371.22032,2360.04375 Z M1374.70852,2366.91143 C1374.48885,2367.13053 1374.13119,2367.1311 1373.91152,2366.91143 C1373.69186,2366.69176 1373.69186,2366.3341 1373.91152,2366.115 C1374.13119,2365.89533 1374.48885,2365.89533 1374.70852,2366.115 C1374.92819,2366.33466 1374.92762,2366.69176 1374.70852,2366.91143 L1374.70852,2366.91143 Z M1373.11509,2365.31856 C1372.45609,2365.977 1372.45609,2367.04943 1373.11509,2367.70786 C1373.77409,2368.36686 1374.84595,2368.36686 1375.50495,2367.70786 C1376.16395,2367.04943 1376.16395,2365.977 1375.50495,2365.31856 C1374.84595,2364.65956 1373.77409,2364.65956 1373.11509,2365.31856 L1373.11509,2365.31856 Z M1360.95682,2360.84018 C1361.17648,2360.62108 1361.53415,2360.62108 1361.75381,2360.84018 C1361.97348,2361.06041 1361.97292,2361.41751 1361.75381,2361.63661 C1361.53415,2361.85684 1361.17648,2361.85684 1360.95682,2361.63661 C1360.73715,2361.41751 1360.73715,2361.05985 1360.95682,2360.84018 L1360.95682,2360.84018 Z M1362.55025,2362.43361 C1363.20925,2361.77517 1363.20925,2360.70275 1362.55025,2360.04375 C1361.89125,2359.38475 1360.81938,2359.38475 1360.16038,2360.04375 C1359.50138,2360.70275 1359.50138,2361.77517 1360.16038,2362.43361 C1360.81938,2363.09204 1361.89125,2363.09204 1362.55025,2362.43361 L1362.55025,2362.43361 Z M1359.85905,2366.91199 C1359.63938,2367.1311 1359.28228,2367.1311 1359.06261,2366.91199 C1358.84295,2366.69176 1358.84295,2366.33466 1359.06261,2366.115 C1359.28172,2365.89533 1359.63938,2365.89533 1359.85905,2366.115 C1360.07871,2366.33466 1360.07871,2366.69176 1359.85905,2366.91199 L1359.85905,2366.91199 Z M1358.26562,2365.31856 C1357.60718,2365.977 1357.60718,2367.04943 1358.26562,2367.70843 C1358.92462,2368.36743 1359.99704,2368.36743 1360.65548,2367.70843 C1361.31448,2367.04943 1361.31448,2365.977 1360.65548,2365.31856 C1359.99704,2364.65956 1358.92462,2364.65956 1358.26562,2365.31856 L1358.26562,2365.31856 Z M1367.44881,2362.74959 C1367.44881,2363.0605 1367.19592,2363.31284 1366.88557,2363.31284 C1366.57465,2363.31284 1366.32176,2363.05994 1366.32232,2362.74959 C1366.32176,2362.59413 1366.38484,2362.45332 1366.48679,2362.35137 C1366.5893,2362.24886 1366.73011,2362.18634 1366.88557,2362.18634 C1367.19592,2362.18634 1367.44881,2362.43868 1367.44881,2362.74959 L1367.44881,2362.74959 Z M1366.88557,2361.05985 C1365.95395,2361.05928 1365.19526,2361.81798 1365.19582,2362.74959 C1365.19582,2363.6812 1365.95339,2364.43877 1366.88557,2364.43877 C1367.35081,2364.43933 1367.77325,2364.24952 1368.07909,2363.94368 C1368.3855,2363.63727 1368.57531,2363.2154 1368.57475,2362.74959 C1368.57475,2361.81798 1367.81718,2361.05985 1366.88557,2361.05985 L1366.88557,2361.05985 Z M1367.44881,2368.38207 C1367.44881,2368.69298 1367.19648,2368.94532 1366.88557,2368.94532 C1366.57465,2368.94532 1366.32232,2368.69242 1366.32232,2368.38207 C1366.32232,2368.22661 1366.3854,2368.08636 1366.48735,2367.98442 C1366.5893,2367.88191 1366.73067,2367.81882 1366.88613,2367.81882 C1367.19592,2367.81939 1367.44825,2368.07116 1367.44881,2368.38207 L1367.44881,2368.38207 Z M1365.19582,2368.3832 C1365.19582,2369.31368 1365.95395,2370.07125 1366.88557,2370.07181 C1367.35137,2370.07181 1367.77381,2369.88256 1368.07965,2369.57672 C1368.38606,2369.27031 1368.57531,2368.84788 1368.57531,2368.38207 C1368.57531,2367.45046 1367.81718,2366.69233 1366.88557,2366.69233 C1365.95395,2366.69176 1365.19526,2367.44989 1365.19582,2368.3832 L1365.19582,2368.3832 Z" id="Fill-1"></path>
        </g>
    </g>
</svg>