<?xml version="1.0" encoding="UTF-8"?>
<svg width="29px" height="35px" viewBox="0 0 29 35" version="1.1" xmlns="http://www.w3.org/2000/svg" xmlns:xlink="http://www.w3.org/1999/xlink">
    <!-- Generator: Sketch 43.1 (39012) - http://www.bohemiancoding.com/sketch -->
    <title>Icons/icon-general-composition</title>
    <desc>Created with Sketch.</desc>
    <defs></defs>
    <g id="Stylde-Guide-App" stroke="none" stroke-width="1" fill="none" fill-rule="evenodd">
        <g id="Textbook-Styleguide---Guest-View---Desktop" transform="translate(-389.000000, -178.000000)" fill="#9A989A">
            <g id="search-auto-complete" transform="translate(360.000000, 15.000000)">
                <g id="Group-43" transform="translate(0.000000, 141.000000)">
                    <g id="Group-30" transform="translate(29.000000, 20.000000)">
                        <g id="Icons/icon-general-composition" transform="translate(0.000000, 2.000000)">
                            <g id="Page-1">
                                <path d="M23.2888833,16.2862389 C22.85955,16.2862389 22.5111056,15.9377944 22.5111056,15.5084611 L22.5111056,11.7405167 C22.5111056,11.3107944 22.85955,10.9627389 23.2888833,10.9627389 C23.7182167,10.9627389 24.0666611,11.3107944 24.0666611,11.7405167 L24.0666611,15.5084611 C24.0666611,15.9377944 23.7182167,16.2862389 23.2888833,16.2862389 L23.2888833,16.2862389 Z M23.2888833,23.8221278 C22.85955,23.8221278 22.5111056,23.4736833 22.5111056,23.04435 L22.5111056,19.2760167 C22.5111056,18.8466833 22.85955,18.4982389 23.2888833,18.4982389 C23.7182167,18.4982389 24.0666611,18.8466833 24.0666611,19.2760167 L24.0666611,23.04435 C24.0666611,23.4736833 23.7182167,23.8221278 23.2888833,23.8221278 L23.2888833,23.8221278 Z M24.0666611,7.97218333 L24.0666611,5.63885 C24.0666611,5.20951667 23.7182167,4.86107222 23.2888833,4.86107222 L20.95555,4.86107222 C20.5262167,4.86107222 20.1777722,5.20951667 20.1777722,5.63885 C20.1777722,6.06857222 20.5262167,6.41662778 20.95555,6.41662778 L22.5111056,6.41662778 L22.5111056,7.97218333 C22.5111056,8.40190556 22.85955,8.74996111 23.2888833,8.74996111 C23.7182167,8.74996111 24.0666611,8.40190556 24.0666611,7.97218333 L24.0666611,7.97218333 Z M17.3256611,5.63885 C17.3256611,5.20951667 16.9776056,4.86107222 16.5478833,4.86107222 L12.1406056,4.86107222 C11.7112722,4.86107222 11.3628278,5.20951667 11.3628278,5.63885 C11.3628278,6.06857222 11.7112722,6.41662778 12.1406056,6.41662778 L16.5478833,6.41662778 C16.9776056,6.41662778 17.3256611,6.06857222 17.3256611,5.63885 L17.3256611,5.63885 Z M6.17777222,7.97218333 L6.17777222,6.41662778 L7.73332778,6.41662778 C8.16266111,6.41662778 8.51110556,6.06857222 8.51110556,5.63885 C8.51110556,5.20951667 8.16266111,4.86107222 7.73332778,4.86107222 L5.39999444,4.86107222 C4.97066111,4.86107222 4.62221667,5.20951667 4.62221667,5.63885 L4.62221667,7.97218333 C4.62221667,8.40190556 4.97066111,8.74996111 5.39999444,8.74996111 C5.82932778,8.74996111 6.17777222,8.40190556 6.17777222,7.97218333 L6.17777222,7.97218333 Z M5.39999444,16.2862389 C4.97066111,16.2862389 4.62221667,15.9377944 4.62221667,15.5084611 L4.62221667,11.7405167 C4.62221667,11.3107944 4.97066111,10.9627389 5.39999444,10.9627389 C5.82932778,10.9627389 6.17777222,11.3107944 6.17777222,11.7405167 L6.17777222,15.5084611 C6.17777222,15.9377944 5.82932778,16.2862389 5.39999444,16.2862389 L5.39999444,16.2862389 Z M5.39999444,23.8221278 C4.97066111,23.8221278 4.62221667,23.4736833 4.62221667,23.04435 L4.62221667,19.2760167 C4.62221667,18.8466833 4.97066111,18.4982389 5.39999444,18.4982389 C5.82932778,18.4982389 6.17777222,18.8466833 6.17777222,19.2760167 L6.17777222,23.04435 C6.17777222,23.4736833 5.82932778,23.8221278 5.39999444,23.8221278 L5.39999444,23.8221278 Z M8.51110556,29.1452389 C8.51110556,28.7159056 8.16266111,28.3674611 7.73332778,28.3674611 L6.17777222,28.3674611 L6.17777222,26.8119056 C6.17777222,26.3825722 5.82932778,26.0341278 5.39999444,26.0341278 C4.97066111,26.0341278 4.62221667,26.3825722 4.62221667,26.8119056 L4.62221667,29.1452389 C4.62221667,29.5749611 4.97066111,29.9230167 5.39999444,29.9230167 L7.73332778,29.9230167 C8.16266111,29.9230167 8.51110556,29.5749611 8.51110556,29.1452389 L8.51110556,29.1452389 Z M17.32605,29.1452389 C17.32605,28.7159056 16.9776056,28.3674611 16.5482722,28.3674611 L12.1409944,28.3674611 C11.7112722,28.3674611 11.3632167,28.7159056 11.3632167,29.1452389 C11.3632167,29.5749611 11.7112722,29.9230167 12.1409944,29.9230167 L16.5482722,29.9230167 C16.9776056,29.9230167 17.32605,29.5749611 17.32605,29.1452389 L17.32605,29.1452389 Z M24.0666611,29.1452389 L24.0666611,26.8119056 C24.0666611,26.3825722 23.7182167,26.0341278 23.2888833,26.0341278 C22.85955,26.0341278 22.5111056,26.3825722 22.5111056,26.8119056 L22.5111056,28.3674611 L20.95555,28.3674611 C20.5262167,28.3674611 20.1777722,28.7159056 20.1777722,29.1452389 C20.1777722,29.5749611 20.5262167,29.9230167 20.95555,29.9230167 L23.2888833,29.9230167 C23.7182167,29.9230167 24.0666611,29.5749611 24.0666611,29.1452389 L24.0666611,29.1452389 Z M2.72210556,1.55551667 C2.07888333,1.55551667 1.55543889,2.07896111 1.55543889,2.72218333 L1.55543889,32.0619056 C1.55543889,32.7055167 2.07888333,33.2285722 2.72210556,33.2285722 L26.0628278,33.2285722 C26.70605,33.2285722 27.2294944,32.7055167 27.2294944,32.0619056 L27.2294944,2.72218333 C27.2294944,2.07896111 26.70605,1.55551667 26.0628278,1.55551667 L2.72210556,1.55551667 Z M26.0628278,34.7841278 L2.72210556,34.7841278 C1.22138333,34.7841278 -0.000116666667,33.5630167 -0.000116666667,32.0619056 L-0.000116666667,2.72218333 C-0.000116666667,1.22146111 1.22138333,-3.88888889e-05 2.72210556,-3.88888889e-05 L26.0628278,-3.88888889e-05 C27.56355,-3.88888889e-05 28.78505,1.22146111 28.78505,2.72218333 L28.78505,32.0619056 C28.78505,33.5630167 27.56355,34.7841278 26.0628278,34.7841278 L26.0628278,34.7841278 Z" id="Fill-1"></path>
                            </g>
                        </g>
                    </g>
                </g>
            </g>
        </g>
    </g>
</svg>