<?xml version="1.0" encoding="UTF-8"?>
<svg width="30px" height="36px" viewBox="0 0 30 36" version="1.1" xmlns="http://www.w3.org/2000/svg" xmlns:xlink="http://www.w3.org/1999/xlink">
    <!-- Generator: Sketch 43.1 (39012) - http://www.bohemiancoding.com/sketch -->
    <title>Icons/icon-content-elements</title>
    <desc>Created with Sketch.</desc>
    <defs>
        <polygon id="path-1" points="29.662 4.3592 29.662 0.721 0 0.721 0 4.3592 0 7.9974 29.662 7.9974 29.662 4.3592"></polygon>
    </defs>
    <g id="Stylde-Guide-App" stroke="none" stroke-width="1" fill="none" fill-rule="evenodd">
        <g id="Textbook-Styleguide---Guest-View---Desktop" transform="translate(-388.000000, -101.000000)">
            <g id="search-auto-complete" transform="translate(360.000000, 15.000000)">
                <g id="Group-44" transform="translate(0.000000, 52.000000)">
                    <g id="Group-29" transform="translate(28.000000, 32.000000)">
                        <g id="Icons/icon-content-elements" transform="translate(0.000000, 1.000000)">
                            <g id="Page-1">
                                <g id="Group-3" transform="translate(0.000000, 0.279400)">
                                    <mask id="mask-2" fill="white">
                                        <use xlink:href="#path-1"></use>
                                    </mask>
                                    <g id="Clip-2"></g>
                                    <path d="M28.227,5.8444 C28.227,6.2404 27.905,6.5624 27.509,6.5624 L2.153,6.5624 C1.757,6.5624 1.435,6.2404 1.435,5.8444 L1.435,2.8744 C1.435,2.4784 1.757,2.1564 2.153,2.1564 L27.509,2.1564 C27.905,2.1564 28.227,2.4784 28.227,2.8744 L28.227,5.8444 Z M27.509,0.7204 L2.153,0.7204 C0.966,0.7204 0,1.6864 0,2.8744 L0,5.8444 C0,7.0314 0.966,7.9974 2.153,7.9974 L27.509,7.9974 C28.697,7.9974 29.662,7.0314 29.662,5.8444 L29.662,2.8744 C29.662,1.6864 28.697,0.7204 27.509,0.7204 L27.509,0.7204 Z" id="Fill-1" fill="#9A999A" mask="url(#mask-2)"></path>
                                </g>
                                <path d="M28.227,14.2253 C28.227,14.6213 27.905,14.9433 27.509,14.9433 L2.153,14.9433 C1.757,14.9433 1.435,14.6213 1.435,14.2253 L1.435,11.2553 C1.435,10.8593 1.757,10.5363 2.153,10.5363 L27.509,10.5363 C27.905,10.5363 28.227,10.8593 28.227,11.2553 L28.227,14.2253 Z M27.509,9.1013 L2.153,9.1013 C0.966,9.1013 0,10.0673 0,11.2553 L0,14.2253 C0,15.4123 0.966,16.3783 2.153,16.3783 L27.509,16.3783 C28.697,16.3783 29.662,15.4123 29.662,14.2253 L29.662,11.2553 C29.662,10.0673 28.697,9.1013 27.509,9.1013 L27.509,9.1013 Z" id="Fill-4" fill="#9A999A"></path>
                                <path d="M28.227,34.1264 C28.227,34.5224 27.905,34.8434 27.509,34.8434 L2.153,34.8434 C1.757,34.8434 1.435,34.5224 1.435,34.1264 L1.435,19.4864 C1.435,19.0904 1.757,18.7684 2.153,18.7684 L27.509,18.7684 C27.905,18.7684 28.227,19.0904 28.227,19.4864 L28.227,34.1264 Z M27.509,17.3334 L2.153,17.3334 C0.966,17.3334 0,18.2984 0,19.4864 L0,34.1264 C0,35.3134 0.966,36.2794 2.153,36.2794 L27.509,36.2794 C28.697,36.2794 29.662,35.3134 29.662,34.1264 L29.662,19.4864 C29.662,18.2984 28.697,17.3334 27.509,17.3334 L27.509,17.3334 Z" id="Fill-6" fill="#9A999A"></path>
                            </g>
                        </g>
                    </g>
                </g>
            </g>
        </g>
    </g>
</svg>