<?xml version="1.0" encoding="UTF-8"?>
<svg width="27px" height="35px" viewBox="0 0 27 35" version="1.1" xmlns="http://www.w3.org/2000/svg" xmlns:xlink="http://www.w3.org/1999/xlink">
    <!-- Generator: Sketch 43.1 (39012) - http://www.bohemiancoding.com/sketch -->
    <title>Icons/icon-skelebook</title>
    <desc>Created with Sketch.</desc>
    <defs></defs>
    <g id="Stylde-Guide-App" stroke="none" stroke-width="1" fill="none" fill-rule="evenodd">
        <g id="Textbook-Styleguide---Guest-View---Desktop" transform="translate(-391.000000, -324.000000)" fill="#9A989A">
            <g id="search-auto-complete" transform="translate(360.000000, 15.000000)">
                <g id="Group-40" transform="translate(0.000000, 292.000000)">
                    <g id="Group-30-Copy-3" transform="translate(31.000000, 17.000000)">
                        <g id="Icons/icon-skelebook">
                            <path d="M24.4270833,20.4166667 C24.0249479,20.4166667 23.6979167,20.0896354 23.6979167,19.6875 C23.6979167,19.2853646 24.0249479,18.9583333 24.4270833,18.9583333 C24.8292187,18.9583333 25.15625,19.2853646 25.15625,19.6875 C25.15625,20.0896354 24.8292187,20.4166667 24.4270833,20.4166667 M20.0520833,26.6145833 C19.6499479,26.6145833 19.3229167,26.2875521 19.3229167,25.8854167 C19.3229167,25.4832812 19.6499479,25.15625 20.0520833,25.15625 C20.4542187,25.15625 20.78125,25.4832812 20.78125,25.8854167 C20.78125,26.2875521 20.4542187,26.6145833 20.0520833,26.6145833 M15.6770833,18.9583333 C15.2749479,18.9583333 14.9479167,18.6313021 14.9479167,18.2291667 C14.9479167,17.8270312 15.2749479,17.5 15.6770833,17.5 C16.0792187,17.5 16.40625,17.8270312 16.40625,18.2291667 C16.40625,18.6313021 16.0792187,18.9583333 15.6770833,18.9583333 M11.3020833,33.5416667 C10.8999479,33.5416667 10.5729167,33.2146354 10.5729167,32.8125 C10.5729167,32.4103646 10.8999479,32.0833333 11.3020833,32.0833333 C11.7042188,32.0833333 12.03125,32.4103646 12.03125,32.8125 C12.03125,33.2146354 11.7042188,33.5416667 11.3020833,33.5416667 M1.45833333,3.28125 C1.45833333,2.27609375 2.27609375,1.45833333 3.28125,1.45833333 C4.28640625,1.45833333 5.10416667,2.27609375 5.10416667,3.28125 C5.10416667,4.28640625 4.28640625,5.10416667 3.28125,5.10416667 C2.27609375,5.10416667 1.45833333,4.28640625 1.45833333,3.28125 M25.15625,17.6276042 L25.15625,12.3958333 C25.15625,11.9933333 24.8295833,11.6666667 24.4270833,11.6666667 L4.01041667,11.6666667 L4.01041667,6.47828125 C5.46947917,6.14505208 6.5625,4.83947917 6.5625,3.28125 C6.5625,1.47182292 5.09067708,0 3.28125,0 C1.47182292,0 0,1.47182292 0,3.28125 C0,4.83947917 1.09302083,6.14505208 2.55208333,6.47828125 L2.55208333,12.3958333 C2.55208333,12.7983333 2.87875,13.125 3.28125,13.125 L10.5729167,13.125 L10.5729167,30.7526042 C9.72489583,31.0541146 9.11458333,31.8623958 9.11458333,32.8125 C9.11458333,34.0189063 10.0956771,35 11.3020833,35 C12.5084896,35 13.4895833,34.0189063 13.4895833,32.8125 C13.4895833,31.8623958 12.8792708,31.0541146 12.03125,30.7526042 L12.03125,13.125 L14.9479167,13.125 L14.9479167,16.1692708 C14.0998958,16.4707812 13.4895833,17.2790625 13.4895833,18.2291667 C13.4895833,19.4355729 14.4706771,20.4166667 15.6770833,20.4166667 C16.8834896,20.4166667 17.8645833,19.4355729 17.8645833,18.2291667 C17.8645833,17.2790625 17.2542708,16.4707812 16.40625,16.1692708 L16.40625,13.125 L19.3229167,13.125 L19.3229167,23.8255208 C18.4748958,24.1270312 17.8645833,24.9353125 17.8645833,25.8854167 C17.8645833,27.0918229 18.8456771,28.0729167 20.0520833,28.0729167 C21.2584896,28.0729167 22.2395833,27.0918229 22.2395833,25.8854167 C22.2395833,24.9353125 21.6292708,24.1270312 20.78125,23.8255208 L20.78125,13.125 L23.6979167,13.125 L23.6979167,17.6276042 C22.8498958,17.9291146 22.2395833,18.7373958 22.2395833,19.6875 C22.2395833,20.8939062 23.2206771,21.875 24.4270833,21.875 C25.6334896,21.875 26.6145833,20.8939062 26.6145833,19.6875 C26.6145833,18.7373958 26.0042708,17.9291146 25.15625,17.6276042" id="Page-1"></path>
                        </g>
                    </g>
                </g>
            </g>
        </g>
    </g>
</svg>