<?xml version="1.0" encoding="UTF-8"?>
<svg width="32px" height="35px" viewBox="0 0 32 35" version="1.1" xmlns="http://www.w3.org/2000/svg" xmlns:xlink="http://www.w3.org/1999/xlink">
    <!-- Generator: Sketch 43.1 (39012) - http://www.bohemiancoding.com/sketch -->
    <title>Icons/icon-getting-started</title>
    <desc>Created with Sketch.</desc>
    <defs></defs>
    <g id="Stylde-Guide-App" stroke="none" stroke-width="1" fill="none" fill-rule="evenodd">
        <g id="Textbook-Styleguide---Guest-View---Desktop" transform="translate(-388.000000, -252.000000)" fill="#9A989A">
            <g id="search-auto-complete" transform="translate(360.000000, 15.000000)">
                <g id="Group-41" transform="translate(0.000000, 215.000000)">
                    <g id="Group-30-Copy" transform="translate(28.000000, 20.000000)">
                        <g id="Page-1" transform="translate(0.000000, 2.000000)">
                            <g id="Icons/icon-getting-started">
                                <path d="M14.70525,1.55555556 L30.7224167,1.55555556 C31.15175,1.55555556 31.5001944,1.20711111 31.5001944,0.777777778 C31.5001944,0.348444444 31.15175,0 30.7224167,0 L14.70525,0 C14.2759167,0 13.9274722,0.348444444 13.9274722,0.777777778 C13.9274722,1.20711111 14.2759167,1.55555556 14.70525,1.55555556 L14.70525,1.55555556 Z M0.777972222,1.55555556 L9.83091667,1.55555556 C10.26025,1.55555556 10.6086944,1.20711111 10.6086944,0.777777778 C10.6086944,0.348444444 10.26025,0 9.83091667,0 L0.777972222,0 C0.34825,0 0.000194444444,0.348444444 0.000194444444,0.777777778 C0.000194444444,1.20711111 0.34825,1.55555556 0.777972222,1.55555556 L0.777972222,1.55555556 Z M23.7581944,6.83627778 C24.1879167,6.83627778 24.5359722,6.48822222 24.5359722,6.0585 C24.5359722,5.62916667 24.1879167,5.28072222 23.7581944,5.28072222 L19.9284167,5.28072222 C19.4986944,5.28072222 19.1506389,5.62916667 19.1506389,6.0585 C19.1506389,6.48822222 19.4986944,6.83627778 19.9284167,6.83627778 L23.7581944,6.83627778 Z M30.7224167,6.83627778 C31.15175,6.83627778 31.5001944,6.48822222 31.5001944,6.0585 C31.5001944,5.62916667 31.15175,5.28072222 30.7224167,5.28072222 L27.9364167,5.28072222 C27.5070833,5.28072222 27.1586389,5.62916667 27.1586389,6.0585 C27.1586389,6.48822222 27.5070833,6.83627778 27.9364167,6.83627778 L30.7224167,6.83627778 Z M12.6161389,6.83627778 L17.4908611,6.83627778 C17.9205833,6.83627778 18.2686389,6.48822222 18.2686389,6.0585 C18.2686389,5.62916667 17.9205833,5.28072222 17.4908611,5.28072222 L12.6161389,5.28072222 C12.1864167,5.28072222 11.8383611,5.62916667 11.8383611,6.0585 C11.8383611,6.48822222 12.1864167,6.83627778 12.6161389,6.83627778 L12.6161389,6.83627778 Z M0.777972222,6.83627778 L9.83091667,6.83627778 C10.26025,6.83627778 10.6086944,6.48822222 10.6086944,6.0585 C10.6086944,5.62916667 10.26025,5.28072222 9.83091667,5.28072222 L0.777972222,5.28072222 C0.34825,5.28072222 0.000194444444,5.62916667 0.000194444444,6.0585 C0.000194444444,6.48822222 0.34825,6.83627778 0.777972222,6.83627778 L0.777972222,6.83627778 Z M12.6161389,11.2777778 C12.1864167,11.2777778 11.8383611,11.6262222 11.8383611,12.0555556 C11.8383611,12.4848889 12.1864167,12.8333333 12.6161389,12.8333333 L16.4466944,12.8333333 C16.8760278,12.8333333 17.2244722,12.4848889 17.2244722,12.0555556 C17.2244722,11.6262222 16.8760278,11.2777778 16.4466944,11.2777778 L12.6161389,11.2777778 Z M30.7224167,11.2777778 L20.2764722,11.2777778 C19.8471389,11.2777778 19.4986944,11.6262222 19.4986944,12.0555556 C19.4986944,12.4848889 19.8471389,12.8333333 20.2764722,12.8333333 L30.7224167,12.8333333 C31.15175,12.8333333 31.5001944,12.4848889 31.5001944,12.0555556 C31.5001944,11.6262222 31.15175,11.2777778 30.7224167,11.2777778 L30.7224167,11.2777778 Z M0.777972222,12.7038333 L9.83091667,12.7038333 C10.26025,12.7038333 10.6086944,12.3553889 10.6086944,11.9260556 C10.6086944,11.4963333 10.26025,11.1482778 9.83091667,11.1482778 L0.777972222,11.1482778 C0.34825,11.1482778 0.000194444444,11.4963333 0.000194444444,11.9260556 C0.000194444444,12.3553889 0.34825,12.7038333 0.777972222,12.7038333 L0.777972222,12.7038333 Z M12.6161389,18.2777778 C12.1864167,18.2777778 11.8383611,18.6262222 11.8383611,19.0555556 C11.8383611,19.4848889 12.1864167,19.8333333 12.6161389,19.8333333 L30.3739722,19.8333333 C30.8036944,19.8333333 31.15175,19.4848889 31.15175,19.0555556 C31.15175,18.6262222 30.8036944,18.2777778 30.3739722,18.2777778 L12.6161389,18.2777778 Z M0.777972222,18.1887222 C0.34825,18.1887222 0.000194444444,18.5371667 0.000194444444,18.9665 C0.000194444444,19.3962222 0.34825,19.7442778 0.777972222,19.7442778 L9.83091667,19.7442778 C10.26025,19.7442778 10.6086944,19.3962222 10.6086944,18.9665 C10.6086944,18.5371667 10.26025,18.1887222 9.83091667,18.1887222 L0.777972222,18.1887222 Z M30.7224167,27.3723333 C31.15175,27.3723333 31.5001944,27.0238889 31.5001944,26.5945556 C31.5001944,26.1648333 31.15175,25.8167778 30.7224167,25.8167778 L26.89225,25.8167778 C26.4625278,25.8167778 26.1144722,26.1648333 26.1144722,26.5945556 C26.1144722,27.0238889 26.4625278,27.3723333 26.89225,27.3723333 L30.7224167,27.3723333 Z M23.0620833,27.3723333 C23.4918056,27.3723333 23.8398611,27.0238889 23.8398611,26.5945556 C23.8398611,26.1648333 23.4918056,25.8167778 23.0620833,25.8167778 L12.6161389,25.8167778 C12.1864167,25.8167778 11.8383611,26.1648333 11.8383611,26.5945556 C11.8383611,27.0238889 12.1864167,27.3723333 12.6161389,27.3723333 L23.0620833,27.3723333 Z M9.83091667,27.3723333 C10.26025,27.3723333 10.6086944,27.0238889 10.6086944,26.5945556 C10.6086944,26.1648333 10.26025,25.8167778 9.83091667,25.8167778 L0.777972222,25.8167778 C0.34825,25.8167778 0.000194444444,26.1648333 0.000194444444,26.5945556 C0.000194444444,27.0238889 0.34825,27.3723333 0.777972222,27.3723333 L9.83091667,27.3723333 Z M19.9284167,33.4444444 C19.4986944,33.4444444 19.1506389,33.7928889 19.1506389,34.2222222 C19.1506389,34.6515556 19.4986944,35 19.9284167,35 L30.3739722,35 C30.8036944,35 31.15175,34.6515556 31.15175,34.2222222 C31.15175,33.7928889 30.8036944,33.4444444 30.3739722,33.4444444 L19.9284167,33.4444444 Z M17.4908611,33.4444444 C17.9205833,33.4444444 18.2686389,33.7928889 18.2686389,34.2222222 C18.2686389,34.6515556 17.9205833,35 17.4908611,35 L0.777972222,35 C0.34825,35 0.000194444444,34.6515556 0.000194444444,34.2222222 C0.000194444444,33.7928889 0.34825,33.4444444 0.777972222,33.4444444 L17.4908611,33.4444444 Z" id="Fill-1"></path>
                            </g>
                        </g>
                    </g>
                </g>
            </g>
        </g>
    </g>
</svg>