<?xml version="1.0" encoding="UTF-8"?>
<svg width="34px" height="39px" viewBox="0 0 34 39" version="1.1" xmlns="http://www.w3.org/2000/svg" xmlns:xlink="http://www.w3.org/1999/xlink">
    <!-- Generator: Sketch 43.1 (39012) - http://www.bohemiancoding.com/sketch -->
    <title>Icons/icon-themes</title>
    <desc>Created with Sketch.</desc>
    <defs>
        <path d="M27.8607353,3.18662799 C27.8607353,1.52860799 26.5108721,0.184517203 24.8629325,0.184517203 L14.0450277,0.184517203 L3.22712292,0.184517203 C1.57148216,0.184517203 0.229320136,1.51936307 0.229320136,3.18662799 L0.229320136,30.1906889 C0.229320136,31.8487089 1.58074561,33.1927997 3.2389658,33.1927997 L24.8510896,33.1927997 C26.513271,33.1927997 27.8607353,31.8579538 27.8607353,30.1906889 L27.8607353,3.18662799 Z" id="path-1"></path>
    </defs>
    <g id="Stylde-Guide-App" stroke="none" stroke-width="1" fill="none" fill-rule="evenodd">
        <g id="Textbook-Styleguide---Guest-View---Desktop" transform="translate(-388.000000, -395.000000)">
            <g id="search-auto-complete" transform="translate(360.000000, 15.000000)">
                <g id="Group-38" transform="translate(0.000000, 363.000000)">
                    <g id="Group-32" transform="translate(28.000000, 17.000000)">
                        <g id="Icons/icon-themes">
                            <g id="Page-1">
                                <path d="M25.0182557,35.705149 L2.61297285,35.705149 C1.58228281,35.705149 0.746457014,34.87925 0.746457014,33.859977 L0.746457014,6.01817619 C0.746457014,4.99890316 1.58228281,4.17300416 2.61297285,4.17300416 L25.0182557,4.17300416 C26.0489457,4.17300416 26.8847715,4.99890316 26.8847715,6.01817619 L26.8847715,33.859977 C26.8847715,34.87925 26.0489457,35.705149 25.0182557,35.705149" id="Fill-1" fill="#FEFEFE"></path>
                                <path d="M2.61312217,4.91096226 C1.99567873,4.91096226 1.49321267,5.40768257 1.49321267,6.01806548 L1.49321267,33.8598663 C1.49321267,34.4706182 1.99567873,34.9669695 2.61312217,34.9669695 L25.018405,34.9669695 C25.6358484,34.9669695 26.1383145,34.4706182 26.1383145,33.8598663 L26.1383145,6.01806548 C26.1383145,5.40768257 25.6358484,4.91096226 25.018405,4.91096226 L2.61312217,4.91096226 Z M25.018405,36.4431071 L2.61312217,36.4431071 C1.17254525,36.4431071 0,35.2843391 0,33.8598663 L0,6.01806548 C0,4.59396171 1.17254525,3.43482464 2.61312217,3.43482464 L25.018405,3.43482464 C26.4589819,3.43482464 27.6315271,4.59396171 27.6315271,6.01806548 L27.6315271,33.8598663 C27.6315271,35.2843391 26.4589819,36.4431071 25.018405,36.4431071 L25.018405,36.4431071 Z" id="Fill-3" fill="#9E9B9A"></path>
                                <path d="M27.9798563,38.195061 L5.57457353,38.195061 C4.54388348,38.195061 3.70805769,37.369162 3.70805769,36.349889 L3.70805769,8.50808824 C3.70805769,7.48881521 4.54388348,6.6629162 5.57457353,6.6629162 L27.9798563,6.6629162 C29.0105464,6.6629162 29.8463722,7.48881521 29.8463722,8.50808824 L29.8463722,36.349889 C29.8463722,37.369162 29.0105464,38.195061 27.9798563,38.195061" id="Fill-5" fill="#FEFEFE"></path>
                                <path d="M5.57476018,7.40087431 C4.95731674,7.40087431 4.45485068,7.89759462 4.45485068,8.50797752 L4.45485068,36.3497783 C4.45485068,36.9605302 4.95731674,37.4568815 5.57476018,37.4568815 L27.980043,37.4568815 C28.5974864,37.4568815 29.0999525,36.9605302 29.0999525,36.3497783 L29.0999525,8.50797752 C29.0999525,7.89759462 28.5974864,7.40087431 27.980043,7.40087431 L5.57476018,7.40087431 Z M27.980043,38.9330191 L5.57476018,38.9330191 C4.13418326,38.9330191 2.96163801,37.7742511 2.96163801,36.3497783 L2.96163801,8.50797752 C2.96163801,7.08387375 4.13418326,5.92473668 5.57476018,5.92473668 L27.980043,5.92473668 C29.4206199,5.92473668 30.5931652,7.08387375 30.5931652,8.50797752 L30.5931652,36.3497783 C30.5931652,37.7742511 29.4206199,38.9330191 27.980043,38.9330191 L27.980043,38.9330191 Z" id="Fill-7" fill="#9E9B9A"></path>
                                <path d="M31.2203891,32.6393588 L8.81510633,32.6393588 C7.78478959,32.6393588 6.9485905,31.8134598 6.9485905,30.7941867 L6.9485905,2.95238596 C6.9485905,1.93311293 7.78478959,1.10721393 8.81510633,1.10721393 L31.2203891,1.10721393 C32.2510792,1.10721393 33.086905,1.93311293 33.086905,2.95238596 L33.086905,30.7941867 C33.086905,31.8134598 32.2510792,32.6393588 31.2203891,32.6393588" id="Fill-9" fill="#FEFEFE"></path>
                                <g id="Group-13" transform="translate(5.972851, 0.184517)">
                                    <mask id="mask-2" fill="white">
                                        <use xlink:href="#path-1"></use>
                                    </mask>
                                    <use id="Clip-12" fill="#FFFFFF" xlink:href="#path-1"></use>
                                    <path d="M2.84244231,1.66065483 C2.22499887,1.66065483 1.72253281,2.15737514 1.72253281,2.76775805 L1.72253281,30.6095588 C1.72253281,31.2203108 2.22499887,31.716662 2.84244231,31.716662 L25.2477251,31.716662 C25.8651686,31.716662 26.3676346,31.2203108 26.3676346,30.6095588 L26.3676346,2.76775805 C26.3676346,2.15737514 25.8651686,1.66065483 25.2477251,1.66065483 L2.84244231,1.66065483 Z M25.2477251,33.1927997 L2.84244231,33.1927997 C1.40186538,33.1927997 0.229320136,32.0340316 0.229320136,30.6095588 L0.229320136,2.76775805 C0.229320136,1.34365427 1.40186538,0.184517203 2.84244231,0.184517203 L25.2477251,0.184517203 C26.688302,0.184517203 27.8608473,1.34365427 27.8608473,2.76775805 L27.8608473,30.6095588 C27.8608473,32.0340316 26.688302,33.1927997 25.2477251,33.1927997 L25.2477251,33.1927997 Z" id="Fill-11" fill="#9E9B9A" mask="url(#mask-2)"></path>
                                </g>
                            </g>
                        </g>
                    </g>
                </g>
            </g>
        </g>
    </g>
</svg>