<?xml version="1.0" encoding="UTF-8"?>
<svg width="167px" height="48px" viewBox="0 0 167 48" version="1.1" xmlns="http://www.w3.org/2000/svg" xmlns:xlink="http://www.w3.org/1999/xlink">
    <!-- Generator: Sketch 43.1 (39012) - http://www.bohemiancoding.com/sketch -->
    <title>Logos/logo-Openguide</title>
    <desc>Created with Sketch.</desc>
    <defs></defs>
    <g id="Stylde-Guide-App" stroke="none" stroke-width="1" fill="none" fill-rule="evenodd">
        <g id="Textbook-Styleguide---Guest-View---Desktop" transform="translate(-20.000000, -15.000000)">
            <g id="header">
                <g id="Group-2" transform="translate(20.000000, 12.000000)">
                    <g id="Logos/logo-Openguide">
                        <path d="M47.804,39.432 L48.824,39.432 L48.824,42.636 L48.848,42.636 C49.0160008,42.2919983 49.2799982,42.0420008 49.64,41.886 C50.0000018,41.7299992 50.3959978,41.652 50.828,41.652 C51.3080024,41.652 51.7259982,41.7399991 52.082,41.916 C52.4380018,42.0920009 52.7339988,42.3299985 52.97,42.63 C53.2060012,42.9300015 53.3839994,43.275998 53.504,43.668 C53.6240006,44.060002 53.684,44.4759978 53.684,44.916 C53.684,45.3560022 53.6260006,45.771998 53.51,46.164 C53.3939994,46.556002 53.2180012,46.8979985 52.982,47.19 C52.7459988,47.4820015 52.4500018,47.7119992 52.094,47.88 C51.7379982,48.0480008 51.3240024,48.132 50.852,48.132 C50.6999992,48.132 50.5300009,48.1160002 50.342,48.084 C50.1539991,48.0519998 49.9680009,48.0000004 49.784,47.928 C49.5999991,47.8559996 49.4260008,47.7580006 49.262,47.634 C49.0979992,47.5099994 48.9600006,47.3560009 48.848,47.172 L48.824,47.172 L48.824,48 L47.804,48 L47.804,39.432 Z M52.604,44.844 C52.604,44.5559986 52.5660004,44.2740014 52.49,43.998 C52.4139996,43.7219986 52.2980008,43.4760011 52.142,43.26 C51.9859992,43.0439989 51.7860012,42.8720006 51.542,42.744 C51.2979988,42.6159994 51.0120016,42.552 50.684,42.552 C50.3399983,42.552 50.0480012,42.6199993 49.808,42.756 C49.5679988,42.8920007 49.3720008,43.0699989 49.22,43.29 C49.0679992,43.5100011 48.9580003,43.7599986 48.89,44.04 C48.8219997,44.3200014 48.788,44.6039986 48.788,44.892 C48.788,45.1960015 48.8239996,45.4899986 48.896,45.774 C48.9680004,46.0580014 49.0819992,46.3079989 49.238,46.524 C49.3940008,46.7400011 49.5959988,46.9139993 49.844,47.046 C50.0920012,47.1780007 50.3919982,47.244 50.744,47.244 C51.0960018,47.244 51.3899988,47.1760007 51.626,47.04 C51.8620012,46.9039993 52.0519993,46.7240011 52.196,46.5 C52.3400007,46.2759989 52.4439997,46.0200014 52.508,45.732 C52.5720003,45.4439986 52.604,45.1480015 52.604,44.844 Z M56.82,48.828 C56.6999994,49.1320015 56.5820006,49.387999 56.466,49.596 C56.3499994,49.804001 56.2220007,49.9739993 56.082,50.106 C55.9419993,50.2380007 55.7860009,50.3339997 55.614,50.394 C55.4419991,50.4540003 55.2440011,50.484 55.02,50.484 C54.8999994,50.484 54.7800006,50.4760001 54.66,50.46 C54.5399994,50.4439999 54.4240006,50.4160002 54.312,50.376 L54.312,49.44 C54.4000004,49.4800002 54.5019994,49.5139999 54.618,49.542 C54.7340006,49.5700001 54.8319996,49.584 54.912,49.584 C55.120001,49.584 55.2939993,49.5340005 55.434,49.434 C55.5740007,49.3339995 55.6799996,49.1920009 55.752,49.008 L56.172,47.964 L53.712,41.796 L54.864,41.796 L56.676,46.872 L56.7,46.872 L58.44,41.796 L59.52,41.796 L56.82,48.828 Z M63.548,43.716 C63.548,44.1480022 63.6039994,44.5739979 63.716,44.994 C63.8280006,45.4140021 64.0039988,45.7919983 64.244,46.128 C64.4840012,46.4640017 64.7919981,46.733999 65.168,46.938 C65.5440019,47.142001 65.9919974,47.244 66.512,47.244 C67.0320026,47.244 67.4799981,47.142001 67.856,46.938 C68.2320019,46.733999 68.5399988,46.4640017 68.78,46.128 C69.0200012,45.7919983 69.1959994,45.4140021 69.308,44.994 C69.4200006,44.5739979 69.476,44.1480022 69.476,43.716 C69.476,43.2839978 69.4200006,42.8580021 69.308,42.438 C69.1959994,42.0179979 69.0200012,41.6400017 68.78,41.304 C68.5399988,40.9679983 68.2320019,40.698001 67.856,40.494 C67.4799981,40.289999 67.0320026,40.188 66.512,40.188 C65.9919974,40.188 65.5440019,40.289999 65.168,40.494 C64.7919981,40.698001 64.4840012,40.9679983 64.244,41.304 C64.0039988,41.6400017 63.8280006,42.0179979 63.716,42.438 C63.6039994,42.8580021 63.548,43.2839978 63.548,43.716 Z M62.408,43.716 C62.408,43.1319971 62.4939991,42.5700027 62.666,42.03 C62.8380009,41.4899973 63.0959983,41.0120021 63.44,40.596 C63.7840017,40.1799979 64.2119974,39.8480012 64.724,39.6 C65.2360026,39.3519988 65.8319966,39.228 66.512,39.228 C67.1920034,39.228 67.7879974,39.3519988 68.3,39.6 C68.8120026,39.8480012 69.2399983,40.1799979 69.584,40.596 C69.9280017,41.0120021 70.1859991,41.4899973 70.358,42.03 C70.5300009,42.5700027 70.616,43.1319971 70.616,43.716 C70.616,44.3000029 70.5300009,44.8619973 70.358,45.402 C70.1859991,45.9420027 69.9280017,46.4199979 69.584,46.836 C69.2399983,47.2520021 68.8120026,47.5819988 68.3,47.826 C67.7879974,48.0700012 67.1920034,48.192 66.512,48.192 C65.8319966,48.192 65.2360026,48.0700012 64.724,47.826 C64.2119974,47.5819988 63.7840017,47.2520021 63.44,46.836 C63.0959983,46.4199979 62.8380009,45.9420027 62.666,45.402 C62.4939991,44.8619973 62.408,44.3000029 62.408,43.716 Z M71.376,41.796 L72.396,41.796 L72.396,42.636 L72.42,42.636 C72.5880008,42.2919983 72.8519982,42.0420008 73.212,41.886 C73.5720018,41.7299992 73.9679978,41.652 74.4,41.652 C74.8800024,41.652 75.2979982,41.7399991 75.654,41.916 C76.0100018,42.0920009 76.3059988,42.3299985 76.542,42.63 C76.7780012,42.9300015 76.9559994,43.275998 77.076,43.668 C77.1960006,44.060002 77.256,44.4759978 77.256,44.916 C77.256,45.3560022 77.1980006,45.771998 77.082,46.164 C76.9659994,46.556002 76.7900012,46.8979985 76.554,47.19 C76.3179988,47.4820015 76.0220018,47.7119992 75.666,47.88 C75.3099982,48.0480008 74.8960024,48.132 74.424,48.132 C74.2719992,48.132 74.1020009,48.1160002 73.914,48.084 C73.7259991,48.0519998 73.5400009,48.0000004 73.356,47.928 C73.1719991,47.8559996 72.9980008,47.7580006 72.834,47.634 C72.6699992,47.5099994 72.5320006,47.3560009 72.42,47.172 L72.396,47.172 L72.396,50.364 L71.376,50.364 L71.376,41.796 Z M76.176,44.844 C76.176,44.5559986 76.1380004,44.2740014 76.062,43.998 C75.9859996,43.7219986 75.8700008,43.4760011 75.714,43.26 C75.5579992,43.0439989 75.3580012,42.8720006 75.114,42.744 C74.8699988,42.6159994 74.5840016,42.552 74.256,42.552 C73.9119983,42.552 73.6200012,42.6199993 73.38,42.756 C73.1399988,42.8920007 72.9440008,43.0699989 72.792,43.29 C72.6399992,43.5100011 72.5300003,43.7599986 72.462,44.04 C72.3939997,44.3200014 72.36,44.6039986 72.36,44.892 C72.36,45.1960015 72.3959996,45.4899986 72.468,45.774 C72.5400004,46.0580014 72.6539992,46.3079989 72.81,46.524 C72.9660008,46.7400011 73.1679988,46.9139993 73.416,47.046 C73.6640012,47.1780007 73.9639982,47.244 74.316,47.244 C74.6680018,47.244 74.9619988,47.1760007 75.198,47.04 C75.4340012,46.9039993 75.6239993,46.7240011 75.768,46.5 C75.9120007,46.2759989 76.0159997,46.0200014 76.08,45.732 C76.1440003,45.4439986 76.176,45.1480015 76.176,44.844 Z M82.264,44.304 C82.2479999,44.0639988 82.1940005,43.8360011 82.102,43.62 C82.0099995,43.4039989 81.8860008,43.2180008 81.73,43.062 C81.5739992,42.9059992 81.3900011,42.7820005 81.178,42.69 C80.9659989,42.5979995 80.7320013,42.552 80.476,42.552 C80.2119987,42.552 79.9740011,42.5979995 79.762,42.69 C79.5499989,42.7820005 79.3680008,42.9079992 79.216,43.068 C79.0639992,43.2280008 78.9440004,43.4139989 78.856,43.626 C78.7679996,43.8380011 78.7160001,44.0639988 78.7,44.304 L82.264,44.304 Z M83.248,46.032 C83.1119993,46.7280035 82.8120023,47.2519982 82.348,47.604 C81.8839977,47.9560018 81.3000035,48.132 80.596,48.132 C80.0999975,48.132 79.6700018,48.0520008 79.306,47.892 C78.9419982,47.7319992 78.6360012,47.5080014 78.388,47.22 C78.1399988,46.9319986 77.9540006,46.588002 77.83,46.188 C77.7059994,45.787998 77.6360001,45.3520024 77.62,44.88 C77.62,44.4079976 77.6919993,43.976002 77.836,43.584 C77.9800007,43.191998 78.1819987,42.8520014 78.442,42.564 C78.7020013,42.2759986 79.0099982,42.0520008 79.366,41.892 C79.7220018,41.7319992 80.1119979,41.652 80.536,41.652 C81.0880028,41.652 81.5459982,41.7659989 81.91,41.994 C82.2740018,42.2220011 82.5659989,42.5119982 82.786,42.864 C83.0060011,43.2160018 83.1579996,43.5999979 83.242,44.016 C83.3260004,44.4320021 83.3600001,44.8279981 83.344,45.204 L78.7,45.204 C78.692,45.4760014 78.7239996,45.7339988 78.796,45.978 C78.8680004,46.2220012 78.9839992,46.4379991 79.144,46.626 C79.3040008,46.8140009 79.5079988,46.9639994 79.756,47.076 C80.0040012,47.1880006 80.2959983,47.244 80.632,47.244 C81.0640022,47.244 81.4179986,47.144001 81.694,46.944 C81.9700014,46.743999 82.1519996,46.440002 82.24,46.032 L83.248,46.032 Z M83.9,41.796 L83.9,48 L84.92,48 L84.92,44.496 C84.92,44.2159986 84.9579996,43.9580012 85.034,43.722 C85.1100004,43.4859988 85.2239992,43.2800009 85.376,43.104 C85.5280008,42.9279991 85.7179989,42.7920005 85.946,42.696 C86.1740011,42.5999995 86.4439984,42.552 86.756,42.552 C87.148002,42.552 87.4559989,42.6639989 87.68,42.888 C87.9040011,43.1120011 88.016,43.4159981 88.016,43.8 L88.016,48 L89.036,48 L89.036,43.92 C89.036,43.5839983 89.0020003,43.2780014 88.934,43.002 C88.8659997,42.7259986 88.7480008,42.488001 88.58,42.288 C88.4119992,42.087999 88.1920014,41.9320006 87.92,41.82 C87.6479986,41.7079994 87.308002,41.652 86.9,41.652 C85.9799954,41.652 85.3080021,42.0279962 84.884,42.78 L84.86,42.78 L84.86,41.796 L83.9,41.796 Z M95.196,41.94 L96.276,41.94 C96.2599999,41.4679976 96.1700008,41.0620017 96.006,40.722 C95.8419992,40.3819983 95.6180014,40.1000011 95.334,39.876 C95.0499986,39.6519989 94.7200019,39.4880005 94.344,39.384 C93.9679981,39.2799995 93.5600022,39.228 93.12,39.228 C92.727998,39.228 92.3460019,39.2779995 91.974,39.378 C91.6019981,39.4780005 91.2700015,39.629999 90.978,39.834 C90.6859985,40.038001 90.4520009,40.2979984 90.276,40.614 C90.0999991,40.9300016 90.012,41.3039978 90.012,41.736 C90.012,42.128002 90.0899992,42.4539987 90.246,42.714 C90.4020008,42.9740013 90.6099987,43.1859992 90.87,43.35 C91.1300013,43.5140008 91.4239984,43.6459995 91.752,43.746 C92.0800016,43.8460005 92.4139983,43.9339996 92.754,44.01 C93.0940017,44.0860004 93.4279984,44.1599996 93.756,44.232 C94.0840016,44.3040004 94.3779987,44.3979994 94.638,44.514 C94.8980013,44.6300006 95.1059992,44.7799991 95.262,44.964 C95.4180008,45.1480009 95.496,45.3879985 95.496,45.684 C95.496,45.9960016 95.4320006,46.251999 95.304,46.452 C95.1759994,46.652001 95.008001,46.8099994 94.8,46.926 C94.591999,47.0420006 94.3580013,47.1239998 94.098,47.172 C93.8379987,47.2200002 93.5800013,47.244 93.324,47.244 C93.0039984,47.244 92.6920015,47.2040004 92.388,47.124 C92.0839985,47.0439996 91.8180011,46.9200008 91.59,46.752 C91.3619989,46.5839992 91.1780007,46.3700013 91.038,46.11 C90.8979993,45.8499987 90.828,45.5400018 90.828,45.18 L89.748,45.18 C89.748,45.7000026 89.8419991,46.1499981 90.03,46.53 C90.2180009,46.9100019 90.4739984,47.2219988 90.798,47.466 C91.1220016,47.7100012 91.4979979,47.8919994 91.926,48.012 C92.3540021,48.1320006 92.8079976,48.192 93.288,48.192 C93.680002,48.192 94.073998,48.1460005 94.47,48.054 C94.866002,47.9619995 95.2239984,47.814001 95.544,47.61 C95.8640016,47.405999 96.125999,47.1420016 96.33,46.818 C96.534001,46.4939984 96.636,46.1040023 96.636,45.648 C96.636,45.2239979 96.5580008,44.8720014 96.402,44.592 C96.2459992,44.3119986 96.0380013,44.0800009 95.778,43.896 C95.5179987,43.7119991 95.2240016,43.5660005 94.896,43.458 C94.5679984,43.3499995 94.2340017,43.2560004 93.894,43.176 C93.5539983,43.0959996 93.2200016,43.0220003 92.892,42.954 C92.5639984,42.8859997 92.2700013,42.8000005 92.01,42.696 C91.7499987,42.5919995 91.5420008,42.4580008 91.386,42.294 C91.2299992,42.1299992 91.152,41.9160013 91.152,41.652 C91.152,41.3719986 91.2059995,41.1380009 91.314,40.95 C91.4220005,40.7619991 91.5659991,40.6120006 91.746,40.5 C91.9260009,40.3879994 92.1319988,40.3080002 92.364,40.26 C92.5960012,40.2119998 92.8319988,40.188 93.072,40.188 C93.664003,40.188 94.1499981,40.3259986 94.53,40.602 C94.9100019,40.8780014 95.1319997,41.3239969 95.196,41.94 Z M98.764,41.796 L98.764,39.936 L97.744,39.936 L97.744,41.796 L96.688,41.796 L96.688,42.696 L97.744,42.696 L97.744,46.644 C97.744,46.9320014 97.7719997,47.1639991 97.828,47.34 C97.8840003,47.5160009 97.9699994,47.6519995 98.086,47.748 C98.2020006,47.8440005 98.3539991,47.9099998 98.542,47.946 C98.7300009,47.9820002 98.9559987,48 99.22,48 L100,48 L100,47.1 L99.532,47.1 C99.3719992,47.1 99.2420005,47.0940001 99.142,47.082 C99.0419995,47.0699999 98.9640003,47.0440002 98.908,47.004 C98.8519997,46.9639998 98.8140001,46.9080004 98.794,46.836 C98.7739999,46.7639996 98.764,46.6680006 98.764,46.548 L98.764,42.696 L100,42.696 L100,41.796 L98.764,41.796 Z M106.124,47.976 C105.947999,48.0800005 105.704002,48.132 105.392,48.132 C105.127999,48.132 104.918001,48.0580007 104.762,47.91 C104.605999,47.7619993 104.528,47.5200017 104.528,47.184 C104.247999,47.5200017 103.922002,47.7619993 103.55,47.91 C103.177998,48.0580007 102.776002,48.132 102.344,48.132 C102.063999,48.132 101.798001,48.1000003 101.546,48.036 C101.293999,47.9719997 101.076001,47.8720007 100.892,47.736 C100.707999,47.5999993 100.562001,47.4220011 100.454,47.202 C100.345999,46.9819989 100.292,46.7160016 100.292,46.404 C100.292,46.0519982 100.351999,45.7640011 100.472,45.54 C100.592001,45.3159989 100.749999,45.1340007 100.946,44.994 C101.142001,44.8539993 101.365999,44.7480004 101.618,44.676 C101.870001,44.6039996 102.127999,44.5440002 102.392,44.496 C102.672001,44.4399997 102.937999,44.3980001 103.19,44.37 C103.442001,44.3419999 103.663999,44.3020003 103.856,44.25 C104.048001,44.1979997 104.199999,44.1220005 104.312,44.022 C104.424001,43.9219995 104.48,43.776001 104.48,43.584 C104.48,43.3599989 104.438,43.1800007 104.354,43.044 C104.27,42.9079993 104.162001,42.8040004 104.03,42.732 C103.897999,42.6599996 103.750001,42.6120001 103.586,42.588 C103.421999,42.5639999 103.260001,42.552 103.1,42.552 C102.667998,42.552 102.308001,42.6339992 102.02,42.798 C101.731999,42.9620008 101.576,43.2719977 101.552,43.728 L100.532,43.728 C100.548,43.3439981 100.627999,43.0200013 100.772,42.756 C100.916001,42.4919987 101.107999,42.2780008 101.348,42.114 C101.588001,41.9499992 101.861998,41.8320004 102.17,41.76 C102.478002,41.6879996 102.807998,41.652 103.16,41.652 C103.440001,41.652 103.717999,41.6719998 103.994,41.712 C104.270001,41.7520002 104.519999,41.8339994 104.744,41.958 C104.968001,42.0820006 105.147999,42.2559989 105.284,42.48 C105.420001,42.7040011 105.488,42.9959982 105.488,43.356 L105.488,46.548 C105.488,46.7880012 105.502,46.9639994 105.53,47.076 C105.558,47.1880006 105.651999,47.244 105.812,47.244 C105.9,47.244 106.003999,47.2240002 106.124,47.184 L106.124,47.976 Z M104.468,44.796 C104.339999,44.8920005 104.172001,44.9619998 103.964,45.006 C103.755999,45.0500002 103.538001,45.0859999 103.31,45.114 C103.081999,45.1420001 102.852001,45.1739998 102.62,45.21 C102.387999,45.2460002 102.180001,45.3039996 101.996,45.384 C101.811999,45.4640004 101.662001,45.5779993 101.546,45.726 C101.429999,45.8740007 101.372,46.0759987 101.372,46.332 C101.372,46.5000008 101.406,46.6419994 101.474,46.758 C101.542,46.8740006 101.629999,46.9679996 101.738,47.04 C101.846001,47.1120004 101.971999,47.1639998 102.116,47.196 C102.260001,47.2280002 102.411999,47.244 102.572,47.244 C102.908002,47.244 103.195999,47.1980005 103.436,47.106 C103.676001,47.0139995 103.871999,46.8980007 104.024,46.758 C104.176001,46.6179993 104.288,46.4660008 104.36,46.302 C104.432,46.1379992 104.468,45.9840007 104.468,45.84 L104.468,44.796 Z M108.24,44.736 L106.08,41.796 L107.388,41.796 L108.876,43.968 L110.424,41.796 L111.648,41.796 L109.512,44.652 L111.912,48 L110.604,48 L108.876,45.432 L107.148,48 L105.912,48 L108.24,44.736 Z" id="by-OpenStax" fill="#B7B7B7"></path>
                        <g id="Page-1" stroke-width="1" transform="translate(0.000000, 3.000000)">
                            <path d="M33.675678,46.5212848 L6.910058,46.5212848 C6.100718,46.5212848 5.412738,45.9383163 5.289738,45.1480703 L1.363578,19.9354958 C1.363578,19.4885533 1.730938,19.1258174 2.183578,19.1258174 L38.241438,19.1258174 C38.694898,19.1258174 39.061438,19.4885533 39.061438,19.9354958 L35.298458,45.1383541 C35.179558,45.9326486 34.489118,46.5212848 33.675678,46.5212848" id="Fill-5" fill="#DBDBDB"></path>
                            <g id="Group-9" transform="translate(0.000000, 0.369618)">
                                <path d="M17.666408,11.7755572 L14.386408,11.7755572 C13.932948,11.7755572 13.566408,11.4128213 13.566408,10.9658789 C13.566408,10.5189364 13.932948,10.1562005 14.386408,10.1562005 L17.666408,10.1562005 C18.119868,10.1562005 18.486408,10.5189364 18.486408,10.9658789 C18.486408,11.4128213 18.119868,11.7755572 17.666408,11.7755572" id="Fill-1" fill="#4A4A4A"></path>
                                <path d="M26.276408,10.1562005 L25.456408,10.1562005 L25.456408,9.34652216 C25.456408,8.89957971 25.089868,8.5368438 24.636408,8.5368438 C24.182948,8.5368438 23.816408,8.89957971 23.816408,9.34652216 L23.816408,10.1562005 L22.996408,10.1562005 C22.542948,10.1562005 22.176408,10.5189364 22.176408,10.9658789 C22.176408,11.4128213 22.542948,11.7755572 22.996408,11.7755572 L23.816408,11.7755572 L23.816408,12.5852356 C23.816408,13.0321781 24.182948,13.394914 24.636408,13.394914 C25.089868,13.394914 25.456408,13.0321781 25.456408,12.5852356 L25.456408,11.7755572 L26.276408,11.7755572 C26.729868,11.7755572 27.096408,11.4128213 27.096408,10.9658789 C27.096408,10.5189364 26.729868,10.1562005 26.276408,10.1562005" id="Fill-3" fill="#4A4A4A"></path>
                                <path d="M25.784736,35.9168463 C25.944636,36.0747336 26.154556,36.154082 26.364476,36.154082 C26.574396,36.154082 26.784316,36.0747336 26.944216,35.9168463 L30.450536,32.4538519 L26.944216,28.9908576 C26.623596,28.675083 26.105356,28.675083 25.784736,28.9908576 C25.464116,29.3066322 25.464116,29.8199682 25.784736,30.1357428 L28.131576,32.4538519 L25.784736,34.7719611 C25.464116,35.0885453 25.464116,35.6010717 25.784736,35.9168463" id="Fill-10" fill="#FFFFFF"></path>
                                <path d="M14.061278,36.1540011 C14.271198,36.1540011 14.481118,36.0746526 14.641018,35.9167653 C14.961638,35.6001811 14.961638,35.0876547 14.641018,34.7718801 L12.293358,32.453771 L14.641018,30.1356618 C14.961638,29.8198873 14.961638,29.3073609 14.641018,28.9907766 C14.320398,28.6750021 13.802158,28.6750021 13.481538,28.9907766 L9.974398,32.453771 L13.481538,35.9167653 C13.641438,36.0746526 13.851358,36.1540011 14.061278,36.1540011" id="Fill-12" fill="#FFFFFF"></path>
                                <path d="M37.213486,26.3904136 C36.027766,26.5636848 35.029006,27.4656665 34.826466,28.6923292 L34.407446,31.2371483 C34.199166,32.5067239 34.908466,33.7139544 36.044166,34.2216227 L34.486986,44.65028 C34.428766,45.0445934 34.079446,45.3417453 33.676006,45.3417453 L21.033246,45.3417453 L21.033246,19.5656347 L38.232746,19.5656347 L37.213486,26.3904136 Z M19.393246,45.3417453 L6.910386,45.3417453 C6.502846,45.3417453 6.162546,45.0526901 6.100226,44.6551381 L4.469246,34.1884259 C5.564766,33.6629446 6.243726,32.4808142 6.038726,31.2371483 L5.621346,28.6923292 C5.420446,27.4729536 4.432346,26.5758299 3.256466,26.3936523 L2.192926,19.5656347 L19.393246,19.5656347 L19.393246,45.3417453 Z M8.236326,14.0023347 C8.236326,7.41641088 13.662266,2.05957885 20.331326,2.05957885 C27.000386,2.05957885 32.426326,7.41641088 32.426326,14.0023347 C32.426326,15.3868847 32.172946,16.7098991 31.730146,17.946278 L8.933326,17.946278 C8.490526,16.7098991 8.236326,15.3868847 8.236326,14.0023347 L8.236326,14.0023347 Z M39.872746,19.6838477 C39.881766,18.6725595 39.145406,17.946278 38.241766,17.946278 L33.448046,17.946278 C33.839186,16.6961346 34.066326,15.3771685 34.066326,14.0023347 C34.066326,6.52414533 27.904846,0.440222125 20.331326,0.440222125 C12.757806,0.440222125 6.596326,6.52414533 6.596326,14.0023347 C6.596326,15.3771685 6.823466,16.6961346 7.214606,17.946278 L2.183086,17.946278 C1.279446,17.946278 0.543086,18.6725595 0.543086,19.5656347 L1.639426,26.6203623 C0.523406,27.136937 -0.170314,28.3312126 0.036326,29.5886431 L0.455346,32.1326525 C0.657886,33.3641733 1.662386,34.2677744 2.853846,34.4369971 L4.479086,44.9012803 C4.666046,46.0947462 5.687766,46.961102 6.910386,46.961102 L33.676006,46.961102 C34.886326,46.961102 35.932646,46.0696462 36.108946,44.8867061 L37.671866,34.4256617 C38.828886,34.2289098 39.794026,33.3374539 39.992466,32.1326525 L40.410666,29.5886431 C40.615666,28.3417384 39.934246,27.157179 38.835446,26.6341268 L39.872746,19.6838477 Z" id="Fill-7" fill="#4A4A4A"></path>
                            </g>
                        </g>
                        <g id="Group-2" stroke-width="1" transform="translate(48.000000, 12.000000)" fill="#4A4A4A">
                            <path d="M10.0342609,1.6147476 C15.1269967,1.6147476 17.8650267,4.4622988 17.8650267,9.6645558 C17.8650267,17.0846171 14.3877286,21.2190424 7.9807384,21.2190424 C2.8880026,21.2190424 0.1225923,18.3988715 0.1225923,13.2239948 C0.1225923,7.4193712 2.833242,1.6147476 10.0342609,1.6147476 Z M9.6509367,5.2289472 C6.4748219,5.2289472 4.47606,7.9122166 4.47606,12.8406706 C4.47606,15.9620248 5.7903144,17.6322231 8.3640626,17.6322231 C11.4854168,17.6322231 13.5389393,14.9489537 13.5389393,10.04788 C13.5389393,6.8991455 12.2246849,5.2289472 9.6509367,5.2289472 Z M26.9433437,6.4610607 C29.8456555,6.4610607 31.7896568,8.5419635 31.7896568,12.4025858 C31.7896568,17.6596034 29.1337677,21.2190424 25.3005257,21.2190424 C24.0136516,21.2190424 23.0279608,20.6440561 22.3708336,20.1238304 L21.768467,25.7641722 C21.7137064,26.3391585 21.1113398,26.6403418 20.0435081,26.6403418 L19.2768597,26.6403418 C18.1816477,26.6403418 17.7161826,26.2296373 17.7161826,25.7915525 L19.2494794,11.2252329 C19.3316203,10.4312042 19.3590006,9.7466967 19.3590006,9.2812316 C19.3590006,8.6241044 19.30424,8.1586393 19.30424,7.7479348 C19.30424,7.1455682 20.7006353,6.762244 22.4803548,6.762244 C23.1922426,6.762244 23.3565244,7.6110333 23.3565244,8.405062 C24.1231728,7.30985 25.4100469,6.4610607 26.9433437,6.4610607 Z M24.3695955,18.0155473 C26.4504983,18.0155473 27.6826118,16.1536869 27.6826118,12.6490085 C27.6826118,10.7597678 26.9159634,9.774077 25.4100469,9.774077 C24.4791167,9.774077 23.7672289,10.5407254 23.2196229,11.4442753 C23.0827214,13.0323327 22.863679,15.1679961 22.6446366,17.3858004 C23.0827214,17.7417443 23.6577077,18.0155473 24.3695955,18.0155473 Z M45.2488218,10.4312042 C45.2488218,14.0727841 42.072707,15.4417991 39.3620573,15.4417991 C38.1573241,15.4417991 37.2811545,15.3596582 36.5145061,15.250137 C36.6514076,17.4953216 37.7739999,18.0155473 39.3894376,18.0155473 C41.5798616,18.0155473 43.3322008,16.8108141 43.6333841,16.8108141 C43.7429053,16.8108141 43.8524265,16.8108141 43.8524265,17.1941383 C43.8250462,17.3036595 43.7702856,18.8643366 43.6333841,19.3024214 C43.1952993,20.8083379 40.3751284,21.2190424 38.8692119,21.2190424 C34.406223,21.2190424 32.4074611,18.8917169 32.4074611,15.1953764 C32.4074611,8.8705271 35.8847592,6.4610607 39.9370436,6.4610607 C44.4000325,6.4610607 45.2488218,9.0074286 45.2488218,10.4312042 Z M36.7061682,12.7311494 L38.0204226,12.7311494 C40.5941708,12.7311494 41.3060586,11.7454586 41.3060586,10.9514299 C41.3060586,10.04788 40.6215511,9.6645558 39.6632406,9.6645558 C37.965662,9.6645558 37.0894924,11.0335708 36.7061682,12.7311494 Z M59.1460715,17.8512655 C59.3103533,17.8512655 59.3651139,17.9060261 59.3651139,18.1524488 C59.3651139,18.2072094 59.3377336,18.8369563 59.1734518,19.7952668 C59.00917,20.8083379 57.7222959,21.2190424 56.7639854,21.2190424 C54.628322,21.2190424 53.4509691,20.2059713 53.4509691,17.7417443 C53.4509691,17.0846171 54.080716,11.5537965 54.080716,11.1704723 C54.080716,10.2943027 53.6700115,9.8014573 52.6021798,9.8014573 C51.5343481,9.8014573 50.6855588,10.7050072 50.1927134,11.4716556 C49.8915301,15.0858552 49.3165438,20.178591 49.3165438,20.178591 C49.2617832,20.7535773 48.6594166,21.0547606 47.5915849,21.0547606 L46.8249365,21.0547606 C45.7297245,21.0547606 45.2642594,20.6440561 45.2642594,20.2059713 C46.3047108,10.04788 46.3047108,10.2943027 46.3047108,9.2812316 C46.3047108,8.6241044 46.2499502,8.1586393 46.2499502,7.7479348 C46.2499502,7.1455682 47.6463455,6.762244 49.426065,6.762244 C50.1105725,6.762244 50.3022346,7.6657939 50.3296149,8.5967241 C51.2057845,7.5015121 52.9307434,6.4610607 54.6009417,6.4610607 C57.0377884,6.4610607 58.2151413,7.5562727 58.2151413,9.9383588 C58.2151413,10.5407254 57.5306338,16.6465323 57.5306338,17.1119974 C57.5306338,17.7417443 57.7770565,18.0155473 58.3520428,18.0155473 C58.735367,18.0155473 59.0365503,17.8512655 59.1460715,17.8512655 Z M70.9350382,6.6253425 C72.0302502,6.6253425 72.5230956,6.8717652 72.5230956,7.30985 L71.4005033,18.4536321 C70.825517,24.011833 68.6898536,26.8046236 64.4185268,26.8046236 C61.5983559,26.8046236 59.3531713,26.0105949 59.3531713,24.8606223 C59.3531713,22.9987619 59.6269743,22.4785362 59.9007773,22.4785362 C60.2293409,22.4785362 61.4614544,23.6011285 63.5971178,23.6011285 C65.7054009,23.6011285 66.9375144,22.3416347 67.1565568,20.0964501 L67.2386977,19.2750411 C66.444669,20.2059713 65.2673161,20.8904788 63.8983011,20.8904788 C61.0781302,20.8904788 59.1888895,18.8917169 59.1888895,15.1679961 C59.1888895,9.9657391 61.790018,6.4610607 65.5411191,6.4610607 C67.0744159,6.4610607 68.2517688,7.3372303 68.8267551,7.8848363 C69.1279384,6.9265258 69.2374596,6.6527228 70.6064746,6.6253425 L70.9350382,6.6253425 Z M67.9232052,12.78591 C68.0327264,11.8823601 68.087487,11.0883314 68.2517688,10.3764436 C67.7863037,9.9931194 67.2113174,9.6645558 66.4720493,9.6645558 C64.4732874,9.6645558 63.2959345,11.4990359 63.2959345,14.9215734 C63.2959345,16.6739126 64.0078223,17.5774625 65.4315979,17.5774625 C66.3077675,17.5774625 67.0196553,16.8381944 67.5672613,15.9894051 L67.9232052,12.78591 Z M85.9822606,17.8512655 C86.1465424,17.8512655 86.201303,17.9060261 86.201303,18.1524488 C86.201303,18.2072094 86.1739227,18.8369563 86.0096409,19.7952668 C85.8453591,20.8083379 84.558485,21.2190424 83.6001745,21.2190424 C81.8752156,21.2190424 80.7800036,20.5619152 80.4240597,19.0286184 C79.4657492,20.1512107 77.7955509,21.2190424 76.0432117,21.2190424 C73.5789847,21.2190424 72.4290121,20.1238304 72.4290121,17.7417443 C72.4290121,16.7834338 73.4420832,7.5015121 73.4420832,7.5015121 C73.4968438,6.9265258 74.0992104,6.6253425 75.1670421,6.6253425 L75.9336905,6.6253425 C77.0289025,6.6253425 77.4943676,7.036047 77.4943676,7.4741318 C77.4943676,7.4741318 76.5634374,16.1810672 76.5634374,16.5370111 C76.5634374,17.3858004 76.9741419,17.8786458 78.0419736,17.8786458 C79.082425,17.8786458 79.903834,17.0846171 80.3966794,16.4001096 C80.6704824,13.4156569 81.3276096,7.5015121 81.3276096,7.5015121 C81.3823702,6.9265258 81.9847368,6.6253425 83.0525685,6.6253425 L83.8192169,6.6253425 C84.9144289,6.6253425 85.379894,7.036047 85.379894,7.4741318 C85.379894,7.4741318 84.3668229,16.8381944 84.3668229,17.1119974 C84.3668229,17.7417443 84.6132456,18.0155473 85.1882319,18.0155473 C85.5715561,18.0155473 85.8727394,17.8512655 85.9822606,17.8512655 Z M90.2964054,0.3552538 C91.3916174,0.3552538 91.8570825,0.7659583 91.8570825,1.2040431 L91.6106598,3.4492277 C91.5558992,4.024214 90.9535326,4.3253973 89.8857009,4.3253973 L89.1190525,4.3253973 C88.0238405,4.3253973 87.5583754,3.9146928 87.5583754,3.476608 L87.8047981,1.2314234 C87.8595587,0.6564371 88.4619253,0.3552538 89.529757,0.3552538 L90.2964054,0.3552538 Z M89.6392782,6.6253425 C90.7344902,6.6253425 91.1999553,7.036047 91.1999553,7.4741318 C91.1999553,7.4741318 90.1868842,16.8381944 90.1868842,17.1119974 C90.1868842,17.7417443 90.4333069,18.0155473 91.0082932,18.0155473 C91.3916174,18.0155473 91.6928007,17.8512655 91.8023219,17.8512655 C91.9666037,17.8512655 92.0213643,17.9060261 92.0213643,18.1524488 C92.0213643,18.2072094 91.993984,18.8369563 91.8297022,19.7952668 C91.6654204,20.8083379 90.3785463,21.2190424 89.4202358,21.2190424 C87.2845724,21.2190424 86.1072195,20.2059713 86.1072195,17.7417443 C86.1072195,16.9750959 87.1476709,7.5015121 87.1476709,7.5015121 C87.2024315,6.9265258 87.8047981,6.6253425 88.8726298,6.6253425 L89.6392782,6.6253425 Z M105.644811,17.8512655 C105.809093,17.8512655 105.863853,17.9060261 105.863853,18.1524488 C105.863853,18.2072094 105.836473,18.8369563 105.672191,19.7952668 C105.50791,20.8083379 104.221035,21.2190424 103.262725,21.2190424 C101.565146,21.2190424 100.497315,20.5892955 100.11399,19.1107593 C99.347342,20.3428728 98.0057073,21.2190424 96.3902696,21.2190424 C93.5700987,21.2190424 91.680858,19.1381396 91.680858,15.2775173 C91.680858,10.0204997 94.2819865,6.4610607 98.0330876,6.4610607 C99.3199617,6.4610607 100.333033,7.0634273 100.96278,7.583653 L101.647287,1.2314234 C101.702048,0.6564371 102.304414,0.3552538 103.372246,0.3552538 L104.138895,0.3552538 C105.234107,0.3552538 105.699572,0.7659583 105.699572,1.2040431 C105.699572,1.2040431 104.029373,16.8381944 104.029373,17.1119974 C104.029373,17.7417443 104.275796,18.0155473 104.850782,18.0155473 C105.234107,18.0155473 105.53529,17.8512655 105.644811,17.8512655 Z M100.08661,16.2905884 L100.688977,10.321683 C100.250892,9.9657391 99.6759056,9.6645558 98.9640178,9.6645558 C96.9652559,9.6645558 95.787903,11.5264162 95.787903,15.0310946 C95.787903,16.9203353 96.4997908,17.9060261 97.9235664,17.9060261 C98.8271163,17.9060261 99.5390041,17.166758 100.08661,16.2905884 Z M118.58375,10.4312042 C118.58375,14.0727841 115.407636,15.4417991 112.696986,15.4417991 C111.492253,15.4417991 110.616083,15.3596582 109.849435,15.250137 C109.986336,17.4953216 111.108928,18.0155473 112.724366,18.0155473 C114.91479,18.0155473 116.667129,16.8108141 116.968313,16.8108141 C117.077834,16.8108141 117.187355,16.8108141 117.187355,17.1941383 C117.159975,17.3036595 117.105214,18.8643366 116.968313,19.3024214 C116.530228,20.8083379 113.710057,21.2190424 112.20414,21.2190424 C107.741152,21.2190424 105.74239,18.8917169 105.74239,15.1953764 C105.74239,8.8705271 109.219688,6.4610607 113.271972,6.4610607 C117.734961,6.4610607 118.58375,9.0074286 118.58375,10.4312042 Z M110.041097,12.7311494 L111.355351,12.7311494 C113.929099,12.7311494 114.640987,11.7454586 114.640987,10.9514299 C114.640987,10.04788 113.95648,9.6645558 112.998169,9.6645558 C111.300591,9.6645558 110.424421,11.0335708 110.041097,12.7311494 Z" id="Openguide"></path>
                        </g>
                    </g>
                </g>
            </g>
        </g>
    </g>
</svg>